<!DOCTYPE svg PUBLIC "-//W3C//DTD SVG 1.1//EN" "http://www.w3.org/Graphics/SVG/1.1/DTD/svg11.dtd">
<svg xmlns="http://www.w3.org/2000/svg" viewBox="0 0 976 722">
<path fill="#f2f4fb" stroke="#f2f4fb" d="M131 19.673c-1.925.831-4.266 2.195-5.203 3.031-1.195 1.067-4.394 1.606-10.728 1.808-10.398.332-14.93 2.08-23.51 9.069-8.73 7.112-11.006 13.97-9.181 27.669l.766 5.75H63.808c-22.236 0-27.234 1.133-34.119 7.734-6.919 6.633-8.668 11.853-8.679 25.901-.01 11.836-.072 12.175-2.51 13.773-1.827 1.197-2.5 2.523-2.5 4.924 0 1.807-.661 4.159-1.468 5.227-2.192 2.898-1.937 8.171.468 9.673 1.302.813 2 2.332 2 4.354 0 1.834.818 3.844 2 4.914 1.991 1.802 2 3.086 2.01 275.405l.01 273.595 2.437 5c3.211 6.586 5.99 9.611 12.043 13.11l5 2.89h892l4.69-2.31c6.24-3.074 10.549-7.553 13.435-13.969l2.375-5.278V89.057l-2.375-5.278c-2.987-6.64-7.518-10.965-14.904-14.227L929.943 67H297.594l3.703-3.792c4.67-4.783 4.665-4.836-1.081-10.496-5.858-5.769-5.574-5.769-11.432 0L284 57.425V42.919l-8.25.291-8.25.29-.5 7.297-.5 7.297-4.962-5.047c-6.065-6.168-6.01-6.167-11.826-.263-5.047 5.125-5.742 7.333-2.962 9.409 6.587 4.919 7.312 4.807-31.119 4.807h-35.614l2.492-6.619c5.807-15.429 1.649-26.341-13.237-34.736-12.114-6.83-29.863-9.6-38.272-5.972M272 57.5c0 5.984-.41 10.5-.952 10.5-.524 0-4.053-3.15-7.843-7-7.717-7.841-8.274-8.069-10.693-4.379l-1.717 2.622 6.724 6.777c3.776 3.805 6.426 7.259 6.044 7.878-.418.677-4.324 1.102-10.122 1.102H244v7h10c5.5 0 10 .326 10 .725 0 .399-3.031 3.78-6.736 7.513-5.531 5.573-6.548 7.088-5.684 8.459 2.816 4.463 4.083 4.088 11.681-3.46 4.007-3.98 7.613-7.237 8.013-7.237.399 0 .726 4.725.726 10.5V109h7v-9.5c0-11.488.315-11.613 8.603-3.398l6.156 6.102 2.621-1.717c3.676-2.409 3.389-3.175-3.905-10.408-3.561-3.531-6.475-6.794-6.475-7.25 0-.456 4.725-.829 10.5-.829H307v-7h-10.5c-12.704 0-12.77-.162-3.775-9.227l6.725-6.777-2.723-2.723-2.723-2.723-6.806 6.754c-3.744 3.715-7.12 6.441-7.502 6.058-.383-.382-.696-4.895-.696-10.029V47h-7v10.5m-118-1.657c0 15.932-13.551 26.534-35.85 28.051-9.518.647-13.15 2.465-13.15 6.582 0 2.177 4.063 6.524 6.097 6.524 2.036 0 3.903 3.446 3.903 7.206 0 3.611 4.324 10.909 8.796 14.846 13.862 12.202 34.583 7.877 43.369-9.052 2.186-4.214 2.335-5.613 2.335-22 0-19.981-1.165-23.85-9.425-31.313-4.905-4.431-6.075-4.594-6.075-.844M39.26 73.879c-8.885 4.558-13.035 11.368-13.914 22.832l-.597 7.789 4.026.045c5.088.057 7.225 1.819 7.225 5.955 0 1.79.675 3.815 1.5 4.5 2.137 1.773 2.137 17.227 0 19-.868.72-1.5 2.901-1.5 5.173 0 4.119-3.558 6.827-8.968 6.827-1.742 0-2.032.643-2.032 4.5 0 5.498-.143 5.495 6.826.14 8.37-6.432 22.899-15.969 29.135-19.124 7.523-3.807 19.825-3.293 34.38 1.438 5.412 1.759 9.974 3.051 10.138 2.872.164-.179.874-5.089 1.578-10.91l1.279-10.585-7.334-13.915C96.968 92.762 92.44 84.925 90.939 83c-1.5-1.925-3.316-5.187-4.034-7.25L85.598 72l-21.549.108c-17.974.091-22.086.384-24.789 1.771m136.775.055c-.569 1.064-1.04 7.702-1.047 14.75-.017 18.109-2.278 25.442-10.172 32.985-4.919 4.7-11.975 8.037-18.627 8.809l-5.902.685-.585 12.169-.585 12.168 9.801 14.5C158.243 183.796 164 193.469 164 195.341c0 .471.726 2.387 1.614 4.258l1.614 3.401H274.135l5.597-4.559c11.818-9.627 18.03-9.177 12.762.923-.822 1.576-1.494 3.043-1.494 3.261 0 .218 19.462.279 43.25.136l43.25-.261.5-26.5c.556-29.442.764-30.43 7.497-35.565 7.247-5.528 3.818-5.347 101.503-5.347 73.072 0 91.223.258 94.252 1.339 5.761 2.056 10.313 6.043 12.827 11.235 1.255 2.594 3.799 6.048 5.653 7.676 6.277 5.511 6.717 7.214 7.268 28.162l.5 19 26.75.266 26.75.267v-24.895c0-30.468.915-33.554 12-40.458l3.5-2.18 82.25-.278 82.25-.278v-7.549c0-7.01.209-7.757 2.923-10.472l2.923-2.923h27.942c31.524 0 32.04.118 34.172 7.795 1.465 5.276 1.247 48.776-.266 53.17-1.74 5.051-6.708 8.035-13.378 8.035h-5.388l.286 9.75.286 9.75 29.296.265 29.296.265-.296-56.765c-.277-53.115-.416-56.99-2.158-60.265-2.788-5.241-7.61-9.887-12.515-12.061-4.301-1.905-9.78-1.939-313.75-1.939H311v14h-7.5c-8.792 0-8.898.212-3 6 5.567 5.464 5.566 5.525-.284 11.288-5.863 5.774-6.121 5.78-11.71.27L284 99.116v6.835c0 7.75-.3 8.057-7.832 8.035-8.979-.026-9.168-.207-9.168-8.818v-7.6l-5.281 5.216c-6.432 6.352-6.379 6.35-12.1.466-5.661-5.823-5.661-5.811-.119-11.25 5.861-5.752 5.757-6-2.5-6h-7V72h-31.465c-30.085 0-31.51.085-32.5 1.934m-149.913 35.97c-2.077 1.315-.388 3.096 2.937 3.096 3.181 0 4.117-2.335 1.359-3.393-2.063-.792-2.641-.752-4.296.297m85.883 14.808c-2.182 12.086-.882 30.744 2.369 33.995.406.406 10.285-1.907 16.376-3.834 4.997-1.581 4.793-7.587-.352-10.358-7.292-3.927-12.24-10.963-15.334-21.803l-1.652-5.788-1.407 7.788m-90.755-6.05c-.687.278-1.25 1.142-1.25 1.921 0 1.773 13.487 2.055 14.569.305 1.44-2.329-8.815-4.043-13.319-2.226m-3.754 10.345c-.994 1.608 1.666 2.108 9.518 1.79 4.748-.193 7.471-.737 7.739-1.547.516-1.561-16.297-1.797-17.257-.243m50.004 5.038c-5.013 1.494-23.333 12.925-32.624 20.356-2.851 2.28-7.472 5.685-9.221 6.795-.604.382-.816.976-.473 1.319.343.344 4.83-2.479 9.971-6.272 25.528-18.838 29.501-20.774 42.347-20.635 10.235.11 9.728-.84-1-1.877-3.3-.319-7.35-.178-9 .314m-46.255 4.205c.654 1.982 10.755 2.266 10.755.302 0-1.217-1.203-1.552-5.583-1.552-4.02 0-5.468.35-5.172 1.25m372.255 3.233c-4.683 1.665-9.131 6.531-10.512 11.5-1.37 4.932-1.317 178.292.056 183.237 1.049 3.778 6.771 10.78 8.809 10.78.812 0 1.189-25.043 1.382-91.823l.265-91.824 2.751-4.157c1.513-2.286 4.663-5.178 7-6.426l4.249-2.27h90.75c61.452 0 90.75-.332 90.75-1.027 0-1.917-3.108-5.477-6.311-7.229-4.436-2.426-182.489-3.142-189.189-.761m284.284-.288c-5.203 1.383-10.466 7.449-11.259 12.977-.342 2.38-.487 44.636-.323 93.902l.298 89.573 2.482 3.622c1.947 2.841 5.634 5.73 7.315 5.731.112 0 .08-39.487-.07-87.75-.289-93.046-.204-94.969 4.439-101.056 5.691-7.462 1.934-7.147 85.584-7.172L841 151v-11l-79.75.103c-48.996.064-81.183.485-83.466 1.092m195.786.692c-.301.487.122 1.442.941 2.122 1.114.925 1.489.939 1.489.054 0-.679.532-.862 1.25-.43.849.51.81.209-.122-.941-1.522-1.876-2.728-2.149-3.558-.805m-740.766 17.792c-1.331.351.778 3.714 9.784 15.609 17.016 22.474 19.025 27.907 20.047 54.212.89 22.93 7.915 50.892 13.749 54.735 4.101 2.7 19.616-3.737 19.616-8.139 0-1.679-.663-1.521-6.25 1.49-15.957 8.6-19.36 1.529-24.34-50.58-1.48-15.484-3.864-25.955-7.629-33.506-2.544-5.102-22.006-34.538-22.734-34.384a75.09 75.09 0 0 0-2.243.563M279 205.649c-6.902 5.939-27.07 24.433-30.472 27.943-2.229 2.299-20.482 17.029-30.865 24.908l-6.59 5-.036 21.25c-.021 11.688.269 21.25.644 21.25 1.46 0 34.89-26.422 46.787-36.979C274.928 254.416 286 241.702 286 237.406c0-2.49-4.181-11.391-7.941-16.906-2.912-4.271-2.607-5.932 2.264-12.326 7.56-9.922 7.471-10.092-1.323-2.525m-110.473 5.601c.221 1.787.868 6.85 1.437 11.25.57 4.4 1.717 14.3 2.549 22 1.574 14.565 4.525 28.938 6.307 30.72 2.584 2.584 15.603-5.223 40.379-24.216 14.836-11.372 23.319-18.673 42.651-36.708l6.65-6.203-50.187-.047-50.187-.046.401 3.25m115.568.451-3.05 3.7 2.678 4.55c8.265 14.043 8.827 17.004 4.658 24.549-8.726 15.792-77.479 72.322-104.941 86.283-9.208 4.681-24.045 6.565-32.721 4.156-13.094-3.636-26.044-28.325-32.357-61.689-.962-5.087-2.028-9.25-2.368-9.25-.702 0-2.23 2.035-10.508 14-3.234 4.675-6.354 9.045-6.933 9.712-.579.666-3.078 4.172-5.553 7.791-2.475 3.619-9.225 13.206-15 21.306-5.775 8.099-12.3 17.314-14.5 20.478-2.2 3.164-6.147 8.781-8.77 12.483A2709.91 2709.91 0 0 0 45.422 363a1293.783 1293.783 0 0 1-8.49 12 1076.206 1076.206 0 0 0-7.961 11.266l-4.009 5.767.269 150.233L25.5 692.5l2.417 4c3.713 6.143 7.193 9.17 13.141 11.431l5.442 2.068h440.617l440.616.001 5.288-2.198c6.046-2.512 9.595-5.584 13.057-11.302l2.422-4 .264-242.25.264-242.25H890.039l-.27 71.824-.269 71.824-2.384 3.479c-1.312 1.913-4.012 4.58-6 5.926L877.5 363.5l-92.903.265c-104.715.299-98.035.771-104.243-7.367-1.425-1.869-3.136-3.398-3.801-3.398-3.389 0-10.575-6.354-13.012-11.505L661 336.124V208h-54v140.576l-2.25 4.404c-1.237 2.422-3.979 5.78-6.093 7.462l-3.842 3.058-94.044.265-94.044.265-4.315-2.529c-2.373-1.391-5.099-3.856-6.057-5.478-.963-1.63-2.918-3.207-4.37-3.526-3.953-.869-10.009-6.341-12.092-10.926-1.737-3.824-1.85-7.996-1.871-68.821L378 208h-90.854l-3.051 3.701m183.167 9.721c-16.249 6.037-31.453 23.41-33.904 38.742l-.677 4.232 2.761-2.172c5.829-4.585 13.679-4.037 19.046 1.331l3.37 3.369.633-2.885c1.605-7.304 12.252-17.797 19.931-19.641l2.922-.701-2.422-1.959c-6.406-5.182-7.771-12.735-3.452-19.098l2.47-3.64-2.22.052c-1.221.029-5.027 1.095-8.458 2.37m247.381-1.43c-8.834 2.759-9.644 5.675-9.638 34.708l.005 24.8 2.245-2.664c6.249-7.417 17.421-7.448 23.49-.067l2.245 2.731.005-25.102c.005-24.5-.05-25.184-2.282-28.5-3.524-5.235-10.276-7.716-16.07-5.906m48.255 1.278c-6.123 4.09-6.895 7.053-6.896 26.48L756 265l3.894-3.894c6.418-6.418 18.036-5.995 22.286.811.716 1.146 1.672 2.083 2.125 2.083 1.542 0 .351-34.191-1.305-37.463-3.625-7.16-13.425-9.728-20.102-5.267m-500.231 6.397c-1.662 1.662-.219 3.409 5.583 6.762l6.25 3.612-7.5-.27c-6.924-.25-7.5-.117-7.5 1.729 0 1.767.964 2.104 8.291 2.892 16.171 1.74 17.894-4.484 3.383-12.219-6.156-3.281-7.374-3.64-8.507-2.506m-60.522 42.211c-1.296.984-2.196 2.519-2 3.411.32 1.464.584 1.448 2.71-.167 1.296-.984 2.196-2.519 2-3.411-.32-1.464-.584-1.448-2.71.167M25 348.983v34.316l10.25-14.407c14.951-21.013 16.038-22.709 15.457-24.115-.38-.92-20.235-24.204-25.321-29.694-.212-.229-.386 15.026-.386 33.9m84.505 72.754c-4.508 1.14-10.356 6.323-12.905 11.439l-2.6 5.217.022 92.053c.021 86.878.124 92.279 1.843 96.063 2.15 4.732 7.623 9.815 12.446 11.559 1.893.684 4.175 2.485 5.071 4.001.896 1.517 3.964 3.921 6.82 5.344l5.191 2.587 90.053-.006c94.992-.005 95.04-.008 100.665-4.741 6.011-5.057 6.84-8.579 6.889-29.253.04-16.802.224-18.729 2-21 1.832-2.343 1.957-4.248 1.978-30.25.021-26.235.122-27.75 1.855-27.75 3.348 0 9.045-6.134 10.324-11.115 2.127-8.279-5.634-18.808-13.907-18.869L323 507v-27.684c0-30.824-.54-33.716-7.179-38.443-1.654-1.178-3.825-3.994-4.823-6.257-2.363-5.354-6.291-9.391-11.395-11.709-3.913-1.777-8.372-1.859-96.103-1.769-50.6.052-92.898.321-93.995.599m281.917.681c-4.436 1.932-9.945 7.058-11.811 10.989-2.868 6.044-2.407 188.317.491 194.304 2.296 4.742 6.729 8.637 11.87 10.429 1.811.632 4.858 2.88 6.771 4.997 5.569 6.164 2.321 5.986 103.257 5.661l92.5-.298 3.7-2.83c8.388-6.417 7.876.605 7.57-103.851l-.27-92.466-2.492-3.637c-1.371-2.001-3.451-4.15-4.622-4.777-1.171-.627-2.658-2.902-3.303-5.056-1.53-5.107-6.105-10.231-11.443-12.815-4.226-2.046-5.263-2.068-96.706-2.029-74.999.032-93.015.292-95.512 1.379m285.078-.685c-5.198 1.301-10.611 6.532-13.557 13.1-1.878 4.188-1.943 7.375-1.943 95.667 0 102.41-.423 96.409 7.281 103.173 7.559 6.638 3.602 6.407 104.804 6.102l91.415-.275 4.772-2.805c2.633-1.548 5.996-4.686 7.5-7l2.728-4.195.29-92c.159-50.6.038-93.398-.269-95.106-.992-5.522-6.161-12.036-11.77-14.831L862.607 421l-92.053.116c-50.63.064-92.954.341-94.054.617m-568.538 6.517c-3.416 1.722-5.048 3.423-6.962 7.25l-2.5 5-.286 88c-.302 92.669-.247 94.011 4.078 99.546 1.26 1.612 5.766 4.954 6.681 4.954.29 0 .407-39.487.259-87.75-.316-103.589-.729-99.425 10.56-106.445l3.708-2.305 90.93-.263c50.011-.145 91.156-.489 91.431-.765 1.06-1.06-6.444-7.539-9.817-8.476-2.204-.613-37.577-.987-93.582-.99L112.424 426l-4.462 2.25m284.459-.354c-10.912 4.957-10.516.885-10.197 104.807l.276 89.797 2.3 3.668c2.258 3.6 6.12 6.832 8.165 6.832.706 0 1.042-28.875 1.057-90.75.025-102.899-.501-96.257 8.076-101.934l4.255-2.816 91.784-.27c86.506-.255 91.749-.37 91.172-2-1.06-2.992-3.671-5.449-7.809-7.349-6.232-2.862-182.775-2.847-189.079.015m283.079.099c-2.2 1.097-5.125 3.65-6.5 5.676l-2.5 3.682-.298 89.573c-.323 96.97-.337 96.572 3.544 101.184 6.084 7.231 1.106 6.89 100.71 6.89 103.097 0 96.55.648 102.716-10.171 1.439-2.524 2.625-169.665 1.296-182.676-.771-7.553-5.158-13.417-11.316-15.128-2.344-.651-35.891-1.016-93.652-1.019-87.903-.004-90.093.042-94 1.989m12.167 33.672c-1.236 1.236-.679 4.114.915 4.726 3.686 1.414 32.134.654 33.418-.893.993-1.197.993-1.803 0-3-1.302-1.568-32.833-2.334-34.333-.833m.014 14.985c-1.248 1.249-.702 4.126.901 4.741 2.458.943 56.748.684 58.266-.278.742-.47 1.186-1.701.987-2.735-.343-1.782-1.898-1.894-29.917-2.145-16.256-.145-29.862.042-30.237.417m76.623 28.304c-12.614 7.691-7.189 22.431 9.217 25.044 16.17 2.576 24.974 12.625 24.968 28.5-.007 18.258-11.68 29.266-30.015 28.303-14.855-.779-23.774-9.357-26.925-25.893-2.151-11.291-6.662-15.608-15.291-14.636-15.468 1.744-15.495 25.928-.051 46.384 16.451 21.789 48.393 28.064 72.363 14.217 37.829-21.854 36.311-77.918-2.65-97.874-11.572-5.927-25.588-7.721-31.616-4.045m-624.747 35.267c-2.522 3.6-2.243 28.708.355 31.916 2.608 3.221 30.679 3.698 33.802.575 2.353-2.353 2.703-30.302.414-33.06-2.425-2.922-32.473-2.428-34.571.569m282.032 2.854c-4.864 5.781-1.518 13.323 5.911 13.323 7.482 0 11.11-8.517 5.864-13.764-3.761-3.76-8.386-3.587-11.775.441m89 0c-3.219 3.825-3.284 7.003-.219 10.567 6.246 7.262 17.957-.53 13.467-8.96-3.002-5.636-9.223-6.391-13.248-1.607" fill-rule="evenodd"/>
<path fill="#ba9bed" stroke="#ba9bed" d="M131.153 20.067c-1.291.517-3.489 1.839-4.885 2.937-2.06 1.62-4.067 1.998-10.653 2.006-9.539.011-15.76 2.413-23.9 9.228-9.028 7.56-11.341 16.42-8.094 31.012l.612 2.75-20.366.044c-21.477.046-24.828.582-31.149 4.982C24.131 79.003 21 86.911 21 102.621c0 10.652-.106 11.219-2.39 12.715-1.559 1.021-2.594 2.888-2.976 5.365-1.918 12.433-1.928 11.98.295 13.537 1.393.976 1.891 2.066 1.459 3.194-.397 1.034.189 2.857 1.477 4.6L21 144.919v272.503c0 271.988.004 272.513 2.044 277.965 2.441 6.526 7.705 12.198 14.49 15.613l4.966 2.5h889l4.871-2.488c6.13-3.13 13.215-10.926 14.866-16.355 1.948-6.412 1.846-601.152-.105-607.865-1.685-5.798-6.788-11.917-12.966-15.549L933.5 68.5l-318.25-.256C440.212 68.103 297 67.629 297 67.19c0-.439 1.575-2.324 3.5-4.19 4.474-4.336 4.434-4.656-1.286-10.289l-4.786-4.714-4.926 5.001C283.15 59.447 283 59.389 283 50.456v-7.544l-7.25.294-7.25.294-.5 8.292-.5 8.293-5.466-5.543c-6.631-6.724-6.454-6.715-12.424-.653l-4.816 4.888 3.603 3.82c1.982 2.101 3.603 4.176 3.603 4.611 0 .896-71.35 1.108-72.243.215-.317-.317.35-2.672 1.483-5.233 4.947-11.183 3.09-24.184-4.364-30.564-11.735-10.045-34.891-15.899-45.723-11.559m5.853 2.761c-1.934.185-5.566 1.824-8.135 3.669-4.332 3.112-5.036 3.298-10.578 2.796-9.652-.875-16.046 1.543-23.996 9.075-6.6 6.253-6.648 6.337-7.094 12.5-.766 10.597 2.391 21.791 8.41 29.815C96.926 82.434 98 84.298 98 84.826c0 .528.638 1.205 1.417 1.504 1.778.682 2.798-1.715 1.347-3.166-2.679-2.679 1.076-3.87 13.989-4.433 18.325-.799 27.036-4.533 31.345-13.434 2.16-4.462 2.258-8.129.651-24.297-.192-1.925.269-2.574 2.001-2.82 1.693-.24 2.25.178 2.25 1.691 0 1.106.45 2.289 1 2.629.55.34 1 1.408 1 2.374 0 1.023 1.465 2.454 3.51 3.429 5.306 2.531 12.104 9.282 14.807 14.705l2.412 4.842 2.507-5.675c3.144-7.119 4.171-13.95 2.841-18.889-1.697-6.301-11.381-14.375-20.658-17.222-2.156-.662-4.819-1.591-5.919-2.064-2.374-1.023-10.586-1.644-15.494-1.172m134.503 24.361c-.262.721-.596 5.558-.742 10.749l-.267 9.438-7.36-7.235c-7.894-7.758-8.452-7.943-11.536-3.812l-2.018 2.703 6.707 6.759c3.689 3.718 6.707 7.085 6.707 7.484s-4.275.725-9.5.725H244v8h9.5c5.225 0 9.5.35 9.5.779 0 .428-2.925 3.678-6.5 7.221-7.251 7.186-7.466 7.744-4.186 10.826 3.239 3.042 3.481 2.944 10.686-4.326 3.543-3.575 6.776-6.5 7.185-6.5.408 0 .871 4.388 1.029 9.75l.286 9.75h8l.288-9.25c.158-5.088.622-9.25 1.031-9.25.409 0 3.415 2.7 6.681 6 6.742 6.813 6.609 6.762 9.992 3.82 3.522-3.063 3.303-3.641-3.992-10.521-8.627-8.136-8.547-8.299 4.06-8.299h10.561l-.311-3.75-.31-3.75-10.25-.285c-5.637-.157-10.25-.595-10.25-.975 0-.379 3.027-3.74 6.727-7.469l6.727-6.779-3.222-3.222-3.222-3.222-6.282 6.226c-3.455 3.424-6.59 6.226-6.967 6.226-.377 0-.815-4.163-.973-9.25l-.288-9.25-3.758-.311c-2.427-.201-3.926.154-4.233 1M152.657 58.012C150.955 74.29 136.283 84 113.39 84c-10.084 0-11.7 9.722-2.282 13.721 2.035.863 2.761 2.06 3.301 5.435 3.56 22.262 30.344 31.174 47.147 15.686 6.644-6.125 8.671-12.03 9.21-26.842.739-20.303-2.175-29.516-11.615-36.715-5.66-4.317-5.763-4.274-6.494 2.727M44.5 71.926C32.113 74.083 25.018 83.664 25.006 98.25L25 105h3.845c4.506 0 7.155 2.356 7.155 6.364 0 1.488.635 3.703 1.411 4.921 1.802 2.828 1.659 16.858-.177 17.47-.69.23-1.234 2.086-1.234 4.206 0 4.531-1.548 6.035-6.961 6.761l-4.039.541v5.428c0 6.123-.388 6.132 8-.188C51.479 136.579 65.578 129 72.998 129c4.649 0 18.12 3.07 26.369 6.009 3.227 1.15 6.099 1.859 6.382 1.575.283-.283 1.18-5.368 1.992-11.3l1.477-10.784-7.7-14.5C97.283 92.025 93 84.6 91.999 83.5c-1.001-1.1-2.878-4.25-4.173-7l-2.354-5-18.486-.135c-10.167-.075-20.286.178-22.486.561m131.384.709c-1.002 1.205-1.531 6.24-1.916 18.264-.495 15.454-.714 16.947-3.164 21.601-5.208 9.895-14.614 16.402-25.173 17.413l-6.131.587-.637 12.435-.638 12.434 10.764 16.066c11.126 16.607 13.883 21.414 15.953 27.815l1.213 3.75H275.294l4.526-3.75c11.656-9.657 16.35-9.813 12.138-.405l-1.86 4.155H378v-24.134c0-27.712.487-30.39 6.641-36.554 6.594-6.603 2.752-6.38 104.705-6.082l92.483.27 4.292 3.017c2.679 1.883 5.342 5.027 7.086 8.364l2.793 5.347V203h65.881l.309-26.838.31-26.838 2.863-4.129c1.787-2.578 4.773-5.08 7.946-6.662l5.084-2.533H841v-7.277c0-14.069 1.51-14.723 34-14.723 36.129 0 34-2.129 34 34 0 33.636.22 33.219-17.901 34l-11.599.5-.285 10.25-.285 10.25H949v-55.057c0-36.848-.365-56.507-1.104-59.442-1.35-5.362-6.697-11.814-12.253-14.785L931.5 71.5l-310.25-.261L311 70.978v5.929c0 9.11.017 9.093-9.323 9.093h-8.109l5.216 5.281c6.354 6.434 6.347 6.18.34 12.096l-4.875 4.803-5.375-5.213-5.374-5.213-.292 7.623-.292 7.623H268v-8c0-4.4-.353-8-.784-8-.431 0-3.229 2.476-6.217 5.501l-5.433 5.502-5.286-5.22-5.285-5.22 5.721-5.781L256.437 86h-15.349l-.294-7.25-.294-7.25-31.616-.264c-28.459-.237-31.754-.098-33 1.399m-150.712 38.55c.454 3.204 7.328 3.499 7.328.315 0-1.597-.772-2.064-3.828-2.315-3.502-.288-3.8-.118-3.5 2m87.541 4.851c-2.997 12.074-2.583 40.427.636 43.646.234.234 4.188-.548 8.788-1.737 4.6-1.189 9.375-2.39 10.613-2.67 4.329-.978 3.201-8.749-1.628-11.213-7.51-3.831-15.943-16.513-16.192-24.35-.039-1.216-.416-3.096-.838-4.176-.713-1.822-.812-1.786-1.379.5m-93.047 3.391c-.972 2.534 1.925 3.684 8.497 3.373 5.703-.27 6.369-.525 6.657-2.55.306-2.161.024-2.25-7.143-2.25-5.541 0-7.604.367-8.011 1.427m-2.33 9.14c-1.058 2.756 1.162 3.53 9.259 3.228 7.332-.274 7.928-.458 8.225-2.545.31-2.184.066-2.25-8.282-2.25-6.887 0-8.721.312-9.202 1.567m48.164 5.694c-7.2 2.985-19.072 10.599-32.75 21.006L25 161.163v18.618c0 12.383.334 18.285.998 17.621.548-.548 7.869-9.941 16.267-20.872 15.399-20.042 17.245-21.97 18.33-19.144.614 1.602-.063 2.569-18.162 25.941-5.463 7.055-11.623 15.174-13.688 18.043l-3.756 5.215.256 88.608.255 88.607 8.96-12.65c4.928-6.957 13.45-19.175 18.937-27.15 8.64-12.558 19.155-27.52 50.596-72A23953.532 23953.532 0 0 0 138 223.73c4.606-6.558 8.175-10.689 9.25-10.704 2.642-.039 2.114 2.602-1.5 7.493a450.441 450.441 0 0 0-5.55 7.69c-1.265 1.81-4.215 5.991-6.557 9.291a2095.17 2095.17 0 0 0-8.982 12.791l-4.724 6.79 2.62 13.21c5.877 29.634 12.966 46.718 23.079 55.62 9.482 8.346 18.465 7.887 38.004-1.942l12.193-6.133.35-22.168c.193-12.192.273-22.313.178-22.49-.095-.177-1.902.754-4.017 2.07-6.662 4.146-12.16 5.921-14.484 4.677-4.789-2.563-8.717-19.706-11.393-49.722-1.519-17.035-3.561-26.907-7.354-35.552-2.999-6.838-23.246-36.811-24.541-36.331-2.07.767-8.136 2.64-14.572 4.5-6.466 1.867-6.564 1.951-18.589 15.779C89.84 191.905 86 195.123 86 191.516c0-1.571 4.91-7.75 17.378-21.872l5.879-6.658-.684-5.743c-.979-8.22-2.977-15.25-4.64-16.323-7.67-4.947-32.278-9.211-38.433-6.659m-44.144 3.254c-.991 2.582.997 3.629 6.254 3.295 4.12-.261 4.89-.625 4.89-2.31 0-2.719-10.135-3.615-11.144-.985m375.758 2.203c-4.984.631-10.792 4.731-13.093 9.242-1.984 3.888-2.021 5.623-2.021 95.599 0 101.991-.421 95.73 6.813 101.247l3.531 2.694h188.311l3.674-2.802c7.711-5.881 7.171 1.773 7.171-101.698v-92.5l-2.351-3.781c-1.293-2.08-4.218-4.78-6.5-6L578.5 139.5l-89-.105c-48.95-.058-90.524.087-92.386.323M680 139.93c-6.909 1.381-12.102 6.158-13.942 12.824-1.426 5.162-1.425 178.397.001 183.523 1.421 5.111 6.335 10.469 10.784 11.759 2.493.722 32.965.965 95.735.762l92.078-.298 3.531-2.694c7.723-5.89 7.313-1.024 7.313-86.806v-76.5l-14-.523c-20.955-.784-20.5-.22-20.5-25.427V139l-78.75.115c-43.312.063-80.325.43-82.25.815m190.518 4.052c-4.031 4.128-4.373 6.824-.396 3.119 3.341-3.113 3.878-2.651 3.878 3.34 0 2.993.45 5.719 1 6.059.629.389 1-1.885 1-6.128v-6.746l2.99 2.864c4.514 4.325 4.957 2.065.492-2.508-2.138-2.19-4.155-3.982-4.482-3.982-.327 0-2.344 1.792-4.482 3.982m-759.809 27.642c-1.443 1.444-.644 4.262 1.392 4.908 2.528.803 4.217-.634 3.733-3.176-.358-1.874-3.815-3.042-5.125-1.732M404.5 177c-1.544 2.498 1.308 3 17.059 3 15.774 0 16.441-.081 16.441-2s-.667-2-16.441-2c-9.882 0-16.688.399-17.059 1m283.961.063c-1.519 2.458 1.771 2.979 17.115 2.713 13.365-.232 15.924-.517 15.924-1.776 0-1.912-31.877-2.817-33.039-.937m-585.871 4.564c-.714 1.861 1.008 4.373 2.997 4.373 1.615 0 3.32-3.005 2.695-4.75-.652-1.818-4.96-1.532-5.692.377m-6.889 6.005c-1.336 1.337-.693 5.157.977 5.798 2.495.957 5.09-1.989 3.698-4.199-1.192-1.893-3.568-2.706-4.675-1.599m308.808 4.353c-1.663 2.691 1.575 3.015 30.123 3.015 27.571 0 29.492-.115 29.178-1.75-.396-2.06-58.05-3.289-59.301-1.265M688.5 192c-1.649 2.668 1.604 3 29.392 3 29.183 0 30.388-.106 29.432-2.598-.663-1.728-57.763-2.119-58.824-.402m-407.576 11.143c-3.398 2.828-13.104 11.607-21.569 19.508-13.616 12.71-30.313 26.693-44.601 37.349l-4.692 3.5-.031 22.309c-.024 17.582.234 22.152 1.219 21.568 17.75-10.518 65.182-52.379 72.883-64.323 4.052-6.284 3.793-7.379-5.485-23.212l-2.657-4.532 4.842-6.405c4.897-6.479 7.638-10.905 6.754-10.905-.266 0-3.264 2.314-6.663 5.143m-112.921 4.607c.01 2.445 3.184 32.65 4.492 42.75 1.712 13.215 4.895 25.329 6.851 26.079 3.841 1.474 26.13-13.24 53.654-35.42 5.811-4.683 37-33.168 37-33.793 0-.201-22.95-.366-51-.366s-50.999.338-50.997.75m115.382 3.568-3.115 4.24 4.383 7.471c8.778 14.959 7.792 18.536-10.075 36.532-31.883 32.113-84.152 69.513-104.85 75.023-24.127 6.424-39.609-10.968-49.275-55.353-1.405-6.452-2.893-13.081-3.307-14.731l-.753-3-4.66 6.5c-2.563 3.575-12.411 17.525-21.883 31a25912.787 25912.787 0 0 1-35.965 51 189678.338 189678.338 0 0 0-23.827 33.693l-5.083 7.193.262 151.307c.245 140.945.381 151.522 1.984 154.451 2.501 4.57 7.645 9.39 12.257 11.485 3.876 1.761 20.16 1.828 447.305 1.849l443.283.022 4.717-2.411c5.664-2.896 8.165-5.158 11.331-10.252l2.386-3.837.258-243.263.258-243.263-34.758.263-34.758.263-.5 66.074-.5 66.074-2.728 4.121c-1.5 2.266-4.875 5.383-7.5 6.926L863.5 353.5l-88.83.286c-55.888.18-90.825-.083-94.209-.708-6.454-1.194-12.064-4.728-15.461-9.741l-2.5-3.689-.271-66.324-.271-66.324H596v129.607l-2.533 5.084c-2.925 5.87-7.904 9.736-14.467 11.233-2.889.66-35.843 1.036-92.068 1.052-97.339.027-94.392.217-101.913-6.578-7.159-6.467-7.019-4.943-7.019-76.576V207l-45.75.039-45.75.039-3.115 4.24M96 214.35c0 1.191 4.337 5.331 14.87 14.194 3.178 2.674 6.563 2.748 5.555.121C115.593 226.496 99.35 213 97.572 213c-.865 0-1.572.608-1.572 1.35m384.213 4.789c-8.92 5.711-8.034 19.172 1.52 23.085 2.072.848 6.634 2.074 10.139 2.724 27.495 5.096 32.486 41.434 7.379 53.718-17.557 8.589-38.759-3.32-40.936-22.994-1.435-12.966-11.486-19.524-21.016-13.712-5.129 3.127-6.648 7.161-6.021 15.99 2.904 40.874 50.773 64.56 85.333 42.223 41.534-26.845 31.627-89.507-16.071-101.655-8.607-2.192-16.302-1.957-20.327.621m333.993 2.004c-7.107 4.551-7.206 5.216-7.206 48.357 0 36.86.091 38.758 2.04 42.579 5.253 10.295 20.203 10.712 25.661.715 1.647-3.016 1.799-6.675 1.799-43.294s-.152-40.278-1.799-43.294c-3.806-6.972-13.698-9.416-20.495-5.063m-551.195 8.107c.006.688 2.706 2.802 6 4.698 7.861 4.526 7.578 5.372-1.511 4.52-6.387-.599-7.5-.475-7.5.835 0 1.853 3.331 2.671 11.77 2.892 10.589.277 11.106-3.429 1.387-9.945-6.317-4.235-10.167-5.374-10.146-3m501.009 29.502c-7.439 3.737-8.02 5.889-8.016 29.646.003 19.397.166 21.369 2.02 24.41 5.424 8.895 19.308 8.863 24.821-.058 3.515-5.686 3.294-43.609-.284-48.875-4.351-6.403-11.863-8.479-18.541-5.123m-561.77 9.922c-2.217 1.547-2.25 1.891-2.25 23.448 0 12.033.365 21.878.811 21.878.447 0 1.797-.918 3-2.039 2.121-1.975 2.189-2.71 2.189-23.5 0-11.804-.338-21.437-.75-21.409-.412.029-1.762.759-3 1.622m508.956 5.469c-5.789 3.707-7.206 8.048-7.206 22.083 0 10.055.339 12.942 1.852 15.79 5.486 10.324 20.393 10.773 25.849.778 3.084-5.648 2.625-29.236-.663-34.033-4.54-6.627-13.454-8.702-19.832-4.618M105.935 424.312c-2.439 1.288-5.785 4.258-7.435 6.601l-3 4.259-.265 93.981c-.291 103.107-.61 97.199 5.588 103.397 6.355 6.355-.633 5.95 102.677 5.95h94l4.236-2.426c8.008-4.587 9.689-8.433 10.264-23.484l.5-13.09 4.413-.589c8.945-1.194 9.087-1.722 9.087-33.743v-27.72l4.25-1.974c6.08-2.824 9.051-7.659 8.479-13.798-1.057-11.342-13.002-17.373-22.134-11.176-2.026 1.375-3.874 2.5-4.106 2.5-.232 0-.549-17.437-.705-38.75l-.284-38.75-2.737-4c-1.505-2.2-4.397-5.125-6.426-6.5l-3.69-2.5-94.138-.265-94.138-.265-4.436 2.342m284.556-.447c-5.041 2.29-10.066 7.942-11.431 12.858-.696 2.508-1.047 34.181-1.045 94.277l.005 90.5 2.382 5.117c2.691 5.779 7.21 9.671 13.098 11.279 5.833 1.593 180.907 1.534 187.251-.064 5.826-1.467 12.293-7.67 14.019-13.448 1.7-5.69 1.783-181.805.089-187.462-1.566-5.225-6.406-10.812-11.288-13.029-6.269-2.847-186.817-2.873-193.08-.028m282.444.447c-2.439 1.288-5.785 4.258-7.435 6.601l-3 4.259-.277 93.164c-.31 104.186-.691 98.298 6.81 105.075 2.154 1.946 5.165 3.887 6.692 4.314 3.6 1.006 185.913 1.016 189.507.011 3.799-1.064 9.511-6.311 11.842-10.881 1.906-3.736 1.949-6.231 1.691-97.595l-.265-93.76-2.737-4c-1.505-2.2-4.397-5.125-6.426-6.5l-3.69-2.5-94.138-.265-94.138-.265-4.436 2.342m-561.898 1.862c-5.202 1.493-8.632 4.358-10.951 9.149-2.068 4.271-2.086 5.089-2.064 94.743.024 99.647-.271 94.781 6.096 100.617 4.728 4.334 4.331 4.317 99.609 4.317h91.597l4.242-2.486c6.647-3.895 8.434-8.627 8.434-22.33V599l-90.75-.022c-99.477-.025-93.056.354-96.133-5.662-1.554-3.038-1.554-67.594 0-70.632 3.077-6.016-3.347-5.637 96.166-5.662l90.782-.022-.282-40.428c-.273-39.042-.354-40.522-2.345-43.188-2.979-3.988-6.539-6.388-11.015-7.427-5.464-1.267-178.929-1.062-183.386.217m284.463-.258c-4.684 1.15-7.191 2.813-10.209 6.769l-2.791 3.659-.265 92.48c-.298 103.813-.732 97.426 7.012 103.236l3.253 2.44 93 .259c104.338.292 96.593.826 102.929-7.101l3.071-3.843.27-91.967c.308-104.517.819-97.782-7.858-103.525l-4.265-2.823-90.573-.161c-49.816-.088-91.924.172-93.574.577m284.5-.282c-6.029 2.018-9.259 4.132-11.705 7.662l-2.795 4.032-.276 90.384c-.292 95.769-.296 95.672 4.506 101.379 5.196 6.175.665 5.909 100.673 5.909 96.393 0 94.787.076 99.82-4.725 5.975-5.7 5.845-3.3 5.548-101.846L875.5 438.5l-2.368-4.132c-1.368-2.387-4.113-5.132-6.5-6.5L862.5 425.5l-90.5-.184c-49.775-.102-91.175.041-92 .318m-558.814 38.091c.479 2.49 33.314 2.76 33.314.275 0-1.263-2.658-1.543-16.828-1.775-15.659-.255-16.804-.151-16.486 1.5m283.399-.863c-1.539 2.49 2.636 3.183 17.55 2.915 12.868-.232 15.365-.521 15.365-1.777 0-1.732-31.867-2.834-32.915-1.138M688.5 463c-1.528 2.472 1.277 3 15.937 3 14.726 0 19.321-.909 16.888-3.342-1.089-1.089-32.141-.766-32.825.342m-567.31 15.75c.417 2.166 55.888 3.26 58.427 1.152 3.022-2.507-.958-2.902-29.249-2.902-27.571 0-29.492.115-29.178 1.75m283.389-.878c-1.687 2.729 2.793 3.154 30.542 2.894 24.441-.229 28.379-.474 28.379-1.766 0-1.734-57.861-2.842-58.921-1.128m283.867.215c-1.596 2.582 2.296 2.934 29.607 2.679 26.15-.245 28.447-.406 28.757-2.016.408-2.119-57.06-2.772-58.364-.663m-281.523 41.836L404 522.846v89.122l2.917 3.266 2.916 3.266 31.334.318c34.943.356 37.752.004 40.877-5.122 1.851-3.036 1.949-5.337 1.952-46.012.003-29.571-.342-43.491-1.113-45-2.913-5.696-2.509-5.638-39.21-5.662L409.846 517l-2.923 2.923m89 0L493 522.846v89.881l2.514 2.514c3.577 3.577 5.424 3.759 38.143 3.759 32.465 0 34.939-.385 37.777-5.872 2.335-4.516 2.352-85.67.018-90.588-2.56-5.396-3.592-5.54-39.576-5.54h-33.03l-2.923 2.923m-169.359 1.602c-2.315 1.85-3.344 2.128-4.866 1.314-2.459-1.316-1.921.987.603 2.579 1.346.849 2.323.42 4.889-2.147 3.872-3.871 3.463-5.013-.626-1.746m85.436.169c-3.917 1.4-4 2.345-4 45.775 0 36.473.208 42.382 1.557 44.308 1.554 2.219 1.61 2.223 33.928 2.223 35.677 0 34.85.144 36.025-6.282.323-1.77.453-21.146.289-43.057l-.299-39.839-2.361-1.911c-2.214-1.792-4.261-1.906-33-1.832-16.851.043-31.314.32-32.139.615m89 0c-3.917 1.4-4 2.345-4 45.775 0 36.473.208 42.382 1.557 44.308 1.554 2.219 1.61 2.223 33.928 2.223 35.677 0 34.85.144 36.025-6.282.323-1.77.453-21.146.289-43.057l-.299-39.839-2.361-1.911c-2.214-1.792-4.261-1.906-33-1.832-16.851.043-31.314.32-32.139.615M141.364 537.17c-3.558 1.722-4.364 5.218-4.364 18.927 0 19.646.258 19.903 20 19.903s20-.257 20-19.903c0-13.987-.795-17.227-4.657-18.987-3.076-1.401-28.061-1.353-30.979.06m276.74 36.744c-.767.486-1.119 1.605-.781 2.485.523 1.363 2.705 1.601 14.677 1.601s14.154-.238 14.677-1.601c1.047-2.729-1.739-3.368-14.677-3.368-6.875 0-13.128.397-13.896.883m89 0c-.767.486-1.119 1.605-.781 2.485.523 1.363 2.705 1.601 14.677 1.601s14.154-.238 14.677-1.601c1.047-2.729-1.739-3.368-14.677-3.368-6.875 0-13.128.397-13.896.883m-89 15c-.767.486-1.119 1.605-.781 2.485.541 1.409 3.619 1.601 25.677 1.601s25.136-.192 25.677-1.601c1.132-2.95-2.057-3.368-25.677-3.368-12.925 0-24.128.397-24.896.883m89 0c-.767.486-1.119 1.605-.781 2.485.54 1.409 3.612 1.601 25.587 1.601 25.155 0 27.696-.36 25.054-3.544-1.39-1.674-47.284-2.173-49.86-.542" fill-rule="evenodd"/>
<path fill="#743ce1" stroke="#743ce1" d="M133.554 19.727c-1.07.272-3.715 1.612-5.878 2.978-3.273 2.065-5.297 2.509-12.054 2.64-12.825.249-25.651 7.885-30.674 18.263-2.213 4.571-2.405 15.247-.398 22.055.637 2.162.631 2.163-20.706 2.509-23.913.387-27.088 1.139-33.997 8.047-6.208 6.209-7.308 9.716-7.673 24.466-.314 12.681-.419 13.246-2.75 14.773-1.72 1.127-2.433 2.525-2.456 4.815-.017 1.775-.692 4.101-1.5 5.168-2.044 2.702-1.831 5.92.532 8.059 1.1.995 2 3.073 2 4.616 0 1.543.898 3.642 1.995 4.664 1.982 1.847 1.996 3.559 2.25 276.289L22.5 693.5l2.479 4.854c2.714 5.314 6.093 8.568 12.405 11.944L41.5 712.5l443.701.254c443.601.255 443.701.254 449.12-1.773 6.702-2.508 12.219-7.734 15.325-14.518l2.367-5.171-.257-301.896L951.5 87.5l-2.178-4.068c-2.603-4.863-9.151-10.994-14.182-13.279-3.357-1.524-28.361-1.673-321.39-1.912C438.988 68.098 296 67.627 296 67.194c0-.434 1.803-2.549 4.006-4.7l4.007-3.912-4.722-4.794-4.722-4.794-5.066 5.003C282.627 60.788 282 60.579 282 51.5V44h-13v8.5c0 4.675-.353 8.5-.784 8.5-.431 0-3.229-2.475-6.216-5.5-6.545-6.627-6.483-6.622-11.941-1.061l-4.357 4.44 4.149 3.869c2.282 2.127 4.149 4.18 4.149 4.56 0 .381-16.875.692-37.5.692s-37.5-.216-37.5-.479 1.125-3.83 2.5-7.926c4.079-12.15 3.131-18.571-3.889-26.341-8.624-9.545-31.772-16.652-44.057-13.527m-.911 3.301c-1.572.471-3.756 1.67-4.855 2.664-1.513 1.37-4.333 1.951-11.642 2.396-12.953.791-23.989 7.014-28.863 16.277-3.732 7.092-.49 25.397 6.288 35.501 1.611 2.402 3.86 5.886 4.997 7.744l2.068 3.377 1.606-3.369c1.11-2.327 1.286-3.69.57-4.406-1.985-1.985.269-3.455 4.306-2.809 5.497.879 20.886-1.058 27.214-3.426 12.64-4.729 16.747-13.83 14.319-31.727-1.007-7.43.694-8.736 2.425-1.861.927 3.681 1.723 4.667 4.933 6.115 5.567 2.51 11.89 9.033 14.693 15.157 3.031 6.621 2.782 6.665 6.446-1.163 3.494-7.467 4.696-16.41 2.927-21.772-4.133-12.521-31.734-23.402-47.432-18.698M270.487 47.25c-.247.688-.571 5.035-.718 9.66l-.269 8.411-6.426-6.661c-7.305-7.571-7.457-7.625-11.269-3.973-3.817 3.657-3.714 3.971 3.731 11.342l6.536 6.471-9.286.5-9.286.5-.305 4.75-.305 4.75h9.055c4.98 0 9.055.352 9.055.781 0 .43-2.7 3.453-6 6.719-6.876 6.804-6.987 7.18-3.195 10.813 3.766 3.608 3.69 3.635 11.42-4.036L270 90.554v9.1c0 10.421.735 11.65 6.68 11.161l3.82-.315.5-9.289.5-9.288 5.969 6.038c6.839 6.92 6.962 6.958 10.726 3.352 3.792-3.633 3.681-4.009-3.195-10.813-3.3-3.266-6-6.289-6-6.719 0-.429 4.275-.781 9.5-.781h9.5V73h-20.446l6.723-6.775c7.813-7.874 7.593-7.201 3.646-11.148-3.933-3.933-3.324-4.113-10.646 3.144L281 64.442V46h-5.031c-3.119 0-5.203.475-5.482 1.25m-117.839 4.436c-.357.356-.648 2.837-.648 5.513C152 72.462 137.241 83 115.863 83c-11.863 0-16.199 9.336-6.708 14.446 3.083 1.66 3.786 2.713 4.78 7.155 5.939 26.537 41.569 30.742 54.225 6.399 3.482-6.696 3.579-39.183.138-45.616-4.004-7.485-13.528-15.821-15.65-13.698M39 73.079c-9.943 4.495-15 13.247-15 25.959V106h4.345c5.218 0 8.163 2.564 7.418 6.459-.266 1.39.086 3 .781 3.578 1.57 1.302 1.676 14.595.14 17.463-.589 1.1-.96 3.146-.824 4.546.332 3.41-2.458 5.733-7.36 6.13l-4 .324-.298 6.25c-.163 3.438-.04 6.25.274 6.25s6.523-4.285 13.798-9.522C58.932 132.606 65.417 129.66 76 130.34c5.709.368 12.053 1.683 19.318 4.007 7.42 2.373 10.952 3.098 11.244 2.307.234-.635 1.078-5.654 1.876-11.154l1.452-10-6.577-13c-3.618-7.15-8.134-15.195-10.036-17.878-1.902-2.683-4.301-6.846-5.332-9.25L86.071 71l-21.285.022c-19.238.02-21.719.218-25.786 2.057m136.035-.145c-.569 1.064-1.04 7.702-1.047 14.75-.012 12.823-1.176 19.923-4.232 25.816-4.296 8.282-15.502 15.482-25.372 16.301l-5.116.424-.627 6.638c-.345 3.65-.63 9.49-.634 12.977l-.007 6.34 9.635 14.16c9.731 14.302 14.323 22.348 16.743 29.337l1.323 3.823 54.73.259 54.731.258 6.636-5.508c9.399-7.801 13.602-7.457 9.202.752-1.1 2.053-2 3.963-2 4.246 0 .282 20.137.396 44.75.253l44.75-.26.5-26.5c.536-28.426.769-29.734 6.155-34.633 6.884-6.262.027-5.867 101.845-5.867h92.5l4.456 2.5c2.45 1.375 5.825 4.45 7.5 6.833l3.044 4.333.5 26.667.5 26.667 33.189.263 33.19.264.31-26.264c.35-29.596.858-31.752 8.769-37.234 6.254-4.334 10.242-4.529 92.678-4.529H842v-7.444c0-6.426.33-7.828 2.412-10.25l2.412-2.806 26.264-.298c18.6-.212 27.1.047 29.128.887 5.681 2.354 5.784 2.927 5.784 32.21v26.855l-2.923 2.923c-2.894 2.894-3.038 2.923-14.5 2.923H879v23.026l35.25-.263 35.25-.263.264-54c.176-36.061-.098-55.751-.825-59.271-1.469-7.106-6.111-13.049-12.875-16.479L930.641 71h-620.55l-.295 6.75-.296 6.75-8.25.29c-4.538.16-8.25.597-8.25.971 0 .375 2.477 3.184 5.504 6.243l5.505 5.563-4.791 4.718-4.79 4.718-4.926-5.001c-6.717-6.819-7.358-6.59-7.71 2.748l-.292 7.75h-12l-.29-8.25c-.352-9.986-.887-10.165-8.21-2.75l-5.431 5.5-4.789-4.717-4.789-4.716 5.505-5.563c3.027-3.059 5.504-5.868 5.504-6.241 0-.373-3.488-.81-7.75-.971l-7.75-.292-.296-6.75-.295-6.75h-32.42c-31.028 0-32.463.083-33.454 1.934m-67.847 30.517c2.265 4.661 3.812 5.086 3.812 1.047 0-2.134-3.188-5.498-5.21-5.498-.42 0 .209 2.003 1.398 4.451m-82.135 5.985c-2.193 2.643-.517 4.564 3.982 4.564 3.88 0 4.081-.146 3.781-2.75-.377-3.28-5.544-4.487-7.763-1.814m87.573 3.647c-.241.779-1.216 7.267-2.166 14.417-1.694 12.751-1.688 13.189.337 22.847 1.135 5.416 2.208 9.976 2.383 10.132.504.45 20.248-4.551 20.942-5.304.342-.371.903-2.546 1.247-4.832.61-4.059.525-4.215-3.622-6.665-8.803-5.198-14.043-13.021-15.949-23.808-1.169-6.612-2.406-9.259-3.172-6.787m-92.474 4.802c-.742.47-1.186 1.701-.987 2.735.319 1.653 1.327 1.88 8.335 1.88 7.008 0 8.016-.227 8.335-1.88.521-2.707-1.528-3.589-8.335-3.589-3.3 0-6.607.384-7.348.854m-3.047 9.919c-1.937 3.62.175 4.63 9.05 4.327 9.272-.316 9.845-.495 9.845-3.083 0-2.496-1.908-3.048-10.547-3.048-6.092 0-7.551.315-8.348 1.804m47.076 6.133c-5.613 2.634-18.374 10.973-30.516 19.941L24 161.016v19.575c0 11.257.385 19.434.905 19.242.498-.183 8.226-9.907 17.174-21.609 10.367-13.557 16.617-20.928 17.227-20.318.937.937-2.447 5.639-25.817 35.868L24 206.048v89.56c0 55.539.357 89.432.941 89.225.518-.183 9.14-12.033 19.161-26.333 10.022-14.3 31.739-45.125 48.262-68.5 16.522-23.375 34.939-49.475 40.925-58C145.343 214.833 148 211.609 148 214.145c0 .874-6.339 10.537-14.086 21.472L119.829 255.5l.533 6.097c1.194 13.635 8.253 39.05 13.936 50.17 12.352 24.17 25.008 26.676 54.246 10.738l8.456-4.61v-22.447c0-12.347-.338-22.44-.75-22.429-.412.01-3.842 1.585-7.62 3.5-3.779 1.914-7.647 3.481-8.595 3.481-6.054 0-9.153-12.7-13.545-55.5-1.507-14.678-3.721-23.841-7.732-32-3.729-7.584-22.26-34.437-23.758-34.427-.825.005-5.993 1.234-11.484 2.733l-9.984 2.723-12.928 14.773c-8.118 9.277-13.28 14.422-13.874 13.828-.593-.593 3.554-6.095 11.147-14.787 13.44-15.386 12.969-14.141 10.325-27.339-1.972-9.843-2.083-9.933-17.933-14.563-12.368-3.613-20.587-4.087-26.088-1.504m-42.937 2.219c-2.957 2.957-.003 5.856 5.94 5.829 4.418-.021 6.062-1.212 5.653-4.098-.393-2.785-9.221-4.103-11.593-1.731m372.547 3.822c-4.594 1.403-8.525 4.84-10.721 9.377-2.094 4.326-2.1 4.638-1.835 96.316l.265 91.976 2.816 4.255c5.679 8.58-1.035 8.051 102.474 8.076 101.987.025 95.279.482 101.511-6.924 4.674-5.555 4.78-7.956 4.48-102.113L592.5 152.5l-2.303-4.017c-1.267-2.21-3.934-5.135-5.927-6.5l-3.623-2.483-92.073-.174c-50.641-.096-93.293.197-94.783.652m281.709.909c-4.629 2.14-7.917 5.426-9.433 9.428-.728 1.92-1.067 31.982-1.065 94.5.001 102.762-.536 95.318 7.341 101.614l3.842 3.071 92.918.265c102.005.291 96.664.576 102.109-5.445 4.86-5.375 4.788-4.072 4.788-86.288V181h-13.944c-13.294 0-14.075-.112-16.75-2.411l-2.806-2.411-.5-18.339-.5-18.339-81-.231c-76.966-.22-81.199-.139-85 1.618m194.001 3.112c-4.5 4.608-3.864 7.648.828 3.957l2.671-2.101v4.95c0 2.994.546 5.404 1.383 6.098 1.817 1.508 2.617-.521 2.617-6.64 0-4.367.082-4.498 1.829-2.918 1.893 1.713 5.171 2.257 5.171.858 0-1.407-7.53-8.203-9.089-8.203-.828 0-3.262 1.799-5.41 3.999M111.19 173.75c.186.963 1 1.75 1.81 1.75s1.624-.787 1.81-1.75c.236-1.228-.304-1.75-1.81-1.75s-2.046.522-1.81 1.75m294.328 4.221c-1.019 1.649 3.452 2.116 17.4 1.817 9.634-.207 13.535-.641 13.833-1.538.517-1.555-30.274-1.83-31.233-.279M689 177.893c0 .491.712 1.166 1.582 1.5 2.06.79 26.776.79 28.836 0 4.381-1.681.093-2.393-14.418-2.393-8.8 0-16 .402-16 .893m-585.52 4.139c-.388.628-.235 1.613.34 2.188 1.344 1.344 4.477.172 3.93-1.471-.556-1.671-3.386-2.147-4.27-.717m-7.419 7.395c-.798.961-.697 1.63.383 2.526 1.65 1.37 3.556.617 3.556-1.405 0-1.911-2.657-2.667-3.939-1.121M405 193c0 .644 10.333 1 29 1s29-.356 29-1-10.333-1-29-1-29 .356-29 1m284 0c0 .644 10.353 1 29.059 1 19.118 0 28.848-.342 28.441-1-.389-.629-11.177-1-29.059-1-18.294 0-28.441.357-28.441 1m-410.606 11.619c-4.892 4.191-15.334 13.618-23.204 20.95-7.871 7.332-21.473 18.866-30.228 25.631l-15.916 12.3-.023 22.75c-.013 12.512.288 22.75.667 22.75 4.086 0 58.557-45.695 68.892-57.793 11.049-12.933 11.078-14.011.828-31.254l-2.703-4.547 6.146-8.289c9.514-12.831 8.358-13.479-4.459-2.498m-111.069 5.631c.303 1.787 1.27 10.675 2.149 19.75 2.479 25.611 5.584 42.615 8.42 46.118l1.734 2.14 4.59-2.03c12.357-5.466 46.996-31.774 70.966-53.898 8.699-8.029 15.816-14.762 15.816-14.964 0-.201-23.451-.366-52.113-.366h-52.114l.552 3.25m115.568.885-3.275 4.135 1.817 3.115c4.501 7.718 8.565 16.656 8.565 18.838 0 15.477-85.279 84.754-117.829 95.719-26.234 8.838-42.986-10.537-52.693-60.942-2.368-12.294-2.504-12.378-7.865-4.869-2.502 3.503-23.244 32.872-46.093 65.264L23.975 391.29l.262 150.605L24.5 692.5l2.162 4c2.793 5.166 7.865 9.993 12.556 11.949 5.314 2.217 889.837 2.39 895.137.176 5.031-2.102 10.749-7.629 13.062-12.625l2.083-4.5.26-242.25.26-242.25h-70.964l-.278 65.25-.278 65.25-2.5 4.459c-1.599 2.853-4.273 5.555-7.421 7.5l-4.922 3.041h-185.21l-4.964-2.555c-3.527-1.814-5.837-3.964-7.974-7.42l-3.009-4.866-.278-65.33-.278-65.329H595l-.022 64.75c-.025 72.48.278 69.306-7.242 75.909-6.056 5.317-6.519 5.341-101.342 5.341-94.044 0-93.476.03-99.902-5.268-7.754-6.39-7.445-3.255-7.47-75.982L379 207h-92.832l-3.275 4.135m-185.726 3.728c.362.938 16.681 15.137 17.397 15.137 1.769 0-.729-2.852-7.814-8.923-7.659-6.561-10.405-8.342-9.583-6.214m384.148 4.601c-6.066 2.638-8.42 12.59-4.237 17.907 2.891 3.676 5.516 4.906 12.194 5.716 30.55 3.705 37.724 43.681 10.147 56.536C480.342 308.516 457 294.658 457 274.44c0-7.346-5.525-13.44-12.185-13.44-23.198 0-12.923 42.965 14.117 59.029 46.411 27.572 100.611-22.203 77.342-71.029-9.848-20.665-39.15-36.412-54.959-29.536m331.396 4.463-4.211 3.927-.293 40.081c-.26 35.565-.107 40.473 1.356 43.557 4.696 9.896 19.512 10.075 24.532.298 2.574-5.014 2.963-78.844.441-83.721-4.681-9.051-14.551-10.925-21.825-4.142m-548.681 5.264c.016.72 2.716 2.848 6 4.728 7.84 4.49 7.54 5.323-1.78 4.934-8.389-.35-10.372 1.167-3.037 2.323 17.005 2.681 19.333-2.342 4.7-10.142-3.9-2.078-5.903-2.706-5.883-1.843m500.004 30.504c-6.831 3.557-7.534 6.246-7.534 28.805 0 22.593.491 24.44 7.546 28.406 6.153 3.458 11.561 2.377 16.954-3.389 2.478-2.65 2.503-2.858 2.805-23.495.335-22.823-.285-26.325-5.236-29.569-3.904-2.557-10.425-2.897-14.535-.758m-561.932 8.537c-3 1.9-3.255 2.432-2.717 5.682.326 1.972.598 12.024.604 22.336.006 10.313.395 18.75.865 18.75s2.045-1.104 3.5-2.452l2.646-2.453v-21.488c0-11.819-.357-21.71-.794-21.98-.437-.27-2.284.453-4.104 1.605m509.398 6.756c-5.413 3.562-6.5 7.047-6.5 20.845 0 17.649 3.404 23.167 14.291 23.167 9.782 0 13.709-6.589 13.709-23 0-12.533-1.074-16.201-5.941-20.297-4.04-3.399-10.995-3.719-15.559-.715M110 423.162c-5.435 1.565-9.991 5.622-12.598 11.221L95.02 439.5l.012 91c.013 100.727-.344 95.018 6.368 101.656 6.237 6.17.546 5.844 102.1 5.844 101.52 0 95.907.32 102.05-5.823 4.932-4.932 5.826-7.887 6.405-21.177l.545-12.5 4.208-.305c3.242-.236 4.791-.999 6.75-3.327l2.542-3.021.01-27.674.01-27.673 3.949-1.658c10.295-4.323 10.763-19.42.748-24.172-6.032-2.863-13-1.651-16.79 2.919-1.243 1.5-1.492-3.238-1.927-36.713l-.5-38.435-2.555-4.962c-1.813-3.521-3.967-5.834-7.421-7.97l-4.866-3.009-91.579-.173c-59.051-.111-92.822.185-95.079.835m286.5-.671c-.55.184-2.229.605-3.732.936-3.853.849-9.754 6.334-11.903 11.064-1.719 3.785-1.821 9.157-1.821 96.009 0 101.419-.303 96.327 6.088 102.202 5.978 5.496 2.157 5.298 102.124 5.298h92.32l4.449-2.25c2.6-1.315 5.7-4.051 7.462-6.586l3.013-4.336.277-92.664c.311-103.836.694-98.037-6.914-104.549-2.189-1.874-5.953-3.904-8.364-4.511-3.981-1.002-180.064-1.592-182.999-.613m282 .431c-7.648 1.895-12.13 5.903-14.969 13.386-2.46 6.484-1.87 185.662.626 190.213 2.268 4.134 6.269 7.979 10.287 9.885 3.941 1.87 186.097 2.479 190.939.639 4.972-1.891 10.529-8.01 12.111-13.338 2.156-7.258 2.271-178.846.126-185.976-1.891-6.281-5.015-10.363-9.954-13.004L863.5 422.5l-91-.16c-50.05-.089-92.35.173-94 .582m-571 4.073c-2.2 1.097-5.125 3.651-6.5 5.676l-2.5 3.682-.29 91.573c-.311 98.581-.381 96.529 3.449 101.08 5.844 6.946-1.209 6.494 101.341 6.494 104.402 0 97.294.541 102.839-7.829 2.527-3.815 2.661-4.648 2.661-16.594V598.5l-91.807-.5-91.808-.5-1.92-2.5c-2.811-3.66-2.985-70.185-.193-73.633 3.594-4.436 2.069-4.367 96.205-4.367h90.108l-.292-40.409-.293-40.408-3.071-3.842c-6.297-7.877 1.185-7.338-101.929-7.339-89.897 0-92.091.045-96 1.993m284-.333c-4.715 2.486-7.323 5.306-9.005 9.739-1.373 3.62-1.522 14.8-1.275 95.599l.28 91.5 2.478 3.5c6.69 9.449 1.551 9.001 103.215 8.994 92.888-.005 93.314-.025 98.812-4.652 6.92-5.822 6.464.783 6.785-98.342.338-103.907.637-100.681-9.834-106.023-5.411-2.76-186.254-3.058-191.456-.315m283.981-.268c-4.14 1.804-9.259 7.88-9.971 11.835-.324 1.799-.459 44.481-.3 94.849l.29 91.578 2.802 3.673c5.863 7.687-1.499 7.139 100.015 7.442 105.031.313 100.832.717 105.787-10.192 2.474-5.448 2.963-184.15.519-189.861-1.665-3.892-6.107-8.207-9.938-9.654-4.505-1.702-185.264-1.387-189.204.33M122 464c0 .623 5.814 1 15.441 1 9.215 0 15.69-.403 16.059-1 .402-.651-4.99-1-15.441-1-10.039 0-16.059.375-16.059 1m283.5 0c.369.597 6.844 1 16.059 1 9.627 0 15.441-.377 15.441-1 0-.625-6.02-1-16.059-1-10.451 0-15.843.349-15.441 1m283.5 0c0 .623 5.814 1 15.441 1 9.215 0 15.69-.403 16.059-1 .402-.651-4.99-1-15.441-1-10.039 0-16.059.375-16.059 1m-566.333 13.667c-2.012 2.012 1.81 2.333 27.774 2.333 25.652 0 32.651-.599 27.971-2.395-2.158-.829-54.914-.77-55.745.062m283.577-.011c-4.27 1.749 2.937 2.344 28.398 2.344 22.375 0 28.435-.269 28.108-1.25-.42-1.263-53.582-2.292-56.506-1.094m283.423.011c-2.012 2.012 1.81 2.333 27.774 2.333 25.652 0 32.651-.599 27.971-2.395-2.158-.829-54.914-.77-55.745.062M410 518.279c-5.933 2.964-6.056 4.056-5.765 51.054l.265 42.833 3.266 2.917 3.266 2.917h32.033c34.052 0 36.42-.301 38.905-4.945.661-1.235 1.03-17.533 1.03-45.524 0-48.059.101-47.254-6.215-49.456-4.61-1.607-63.521-1.427-66.785.204m89.5-.334c-6.145 2.515-5.971 1.179-6.308 48.409-.337 47.137-.251 47.931 5.449 50.528 3.401 1.55 64.645 1.551 67.675.001 5.802-2.968 5.638-1.551 5.662-48.683.024-47.779.002-47.966-6.097-50.092-3.739-1.303-63.238-1.449-66.381-.163m-173.464 2.516c-1.785 1.9-2.723 2.242-4.113 1.498-2.596-1.389-3.523.72-1.366 3.104.964 1.065 2.27 1.937 2.902 1.937 1.502 0 7.541-6.244 7.541-7.798 0-1.993-2.506-1.357-4.964 1.259m83.458 1.954L407 524.909v43.007c0 42.953.003 43.009 2.189 45.045 2.978 2.775 64.695 3.209 68.588.482l2.223-1.556v-43.753c0-36.193-.245-44.087-1.418-45.693-1.346-1.842-3.083-1.956-34.007-2.23l-32.587-.29-2.494 2.494m89 0L496 524.909v43.046c0 41.712.062 43.107 2 45.045 1.918 1.918 3.333 2 34.5 2s32.582-.082 34.5-2c2.633-2.633 3.175-87.01.582-90.559-1.346-1.842-3.083-1.956-34.007-2.23l-32.587-.29-2.494 2.494m-372.923.156c-2.371 2.372-2.371 68.486 0 70.858 1.407 1.406 11.666 1.571 97.944 1.571h96.372l1.556-2.223c1.315-1.876 1.557-6.378 1.557-28.953v-26.73l-4.437-1.963c-4.58-2.026-8.563-7.65-8.563-12.091 0-2.038-.071-2.04-91.429-2.04-81.783 0-91.594.166-93 1.571M198 551.5c0 1.347 1.907 1.518 14.25 1.277 8.648-.168 14.25-.67 14.25-1.277 0-.607-5.602-1.109-14.25-1.277-12.343-.241-14.25-.07-14.25 1.277m0 15c0 1.345 3.08 1.501 25.001 1.267 15.823-.169 25.001-.634 25.001-1.267 0-.633-9.178-1.098-25.001-1.267-21.921-.234-25.001-.078-25.001 1.267m220.694 8.139c-1.937 1.937.466 2.361 13.389 2.361 10.822 0 13.987-.29 13.668-1.25-.453-1.366-25.762-2.406-27.057-1.111m89 0c-1.937 1.937.466 2.361 13.389 2.361 10.822 0 13.987-.29 13.668-1.25-.453-1.366-25.762-2.406-27.057-1.111m-89.01 15.01c-2.017 2.017 1.449 2.351 24.399 2.351 19.622 0 24.993-.272 24.668-1.25-.455-1.364-47.743-2.425-49.067-1.101m89 0c-2.017 2.017 1.449 2.351 24.399 2.351 19.622 0 24.993-.272 24.668-1.25-.455-1.364-47.743-2.425-49.067-1.101" fill-rule="evenodd"/>
<path fill="#2b2e43" stroke="#2b2e43" d="M133.248 20.88c-2.889.998-6.039 2.509-7 3.358-1.234 1.09-4.572 1.661-11.353 1.943-20.536.853-33.906 15.267-30.904 33.319 1.743 10.484 3.691 9.5-18.809 9.5-23.338 0-27.788.911-34.024 6.963-7.214 7-8.484 10.671-8.97 25.912-.386 12.08-.61 13.423-2.318 13.869-1.94.508-3.417 4.156-2.617 6.463.247.711-.384 2.366-1.402 3.678-2.447 3.153-2.338 4.355.664 7.357 1.569 1.569 2.28 3.128 1.89 4.144-.344.896.212 2.863 1.235 4.372 1.799 2.652 1.876 11.718 2.36 276.742l.5 274 2.721 5.159c2.986 5.662 9.383 11.413 14.678 13.196 4.595 1.548 887.759 1.646 893.326.099 6.158-1.71 11.956-6.817 15.275-13.454l3-6 .265-298.5c.263-297.069.254-298.532-1.757-305.178-2.574-8.503-8.319-14.65-16.015-17.135-4.861-1.57-27.246-1.67-323.358-1.441l-318.135.246 319.5.504 319.5.504 5.259 2.772c5.728 3.018 10.62 8.844 12.294 14.639.676 2.343.933 23.203.741 60.089l-.294 56.5h-71l-.282-11.789c-.174-7.275-.653-11.56-1.25-11.191-.61.377-.968 29.213-.968 78.071 0 85.164.235 81.842-6.144 86.702-6.284 4.787-6.721 4.806-102.356 4.497-98.304-.317-92.705.022-98.133-5.945-5.645-6.206-5.348-.872-5.584-100.545-.124-52.723-.462-80.732-.792-65.8-.317 14.3-.669 26.119-.784 26.263-.114.145-15.169.145-33.457 0l-33.25-.263-.505-25.5c-.428-21.638-.776-26.104-2.297-29.486-3.065-6.814-8.875-11.597-13.898-11.444-1.714.053-1.289.441 1.67 1.524 4.854 1.777 9.314 5.825 11.153 10.124 1.771 4.139 2.07 184.319.313 188.967-1.318 3.491-5.472 7.96-9.436 10.154-3.654 2.023-177.792 3.117-186.866 1.174-6.199-1.327-10.158-4.161-12.657-9.057-1.927-3.779-1.977-6.2-1.973-96.666l.003-92.79 2.123-3.482c6.147-10.083-.368-9.444 102.37-10.043l90-.526-91 .026c-100.315.028-93.457-.398-99.686 6.186-4.894 5.172-5.226 7.167-5.787 34.839l-.527 26-44.439.261c-24.541.143-44.833-.133-45.317-.617-.503-.503.003-2.321 1.186-4.26 5.113-8.388 2.152-8.725-7.682-.876l-7.527 6.009-54.505-.259-54.506-.258-3.26-7.751c-1.793-4.263-8.302-15.391-14.466-24.729l-11.205-16.977.682-11.272c.919-15.195.559-14.46 7.333-14.95 10.665-.771 20.405-7.475 25.277-17.398 2.161-4.401 2.471-6.619 2.923-20.923.327-10.329.962-16.798 1.791-18.25L176.07 70l40.215-.238 40.215-.238-39.25-.274c-21.588-.15-39.25-.484-39.25-.741s1.151-3.896 2.558-8.087c6.827-20.336-2.134-32.983-27.855-39.315-10.333-2.544-12.67-2.571-19.455-.227m.386 1.151c-1.577.472-4.602 2.061-6.722 3.53-3.124 2.165-4.525 2.547-7.38 2.011-12.189-2.287-29.827 7.703-33.558 19.005-2.744 8.315 1.267 25.299 8.483 35.923 1.868 2.75 3.951 6.237 4.63 7.75 1.499 3.34 2.913 3.57 2.913.473 0-1.253.721-3.307 1.602-4.565 1.482-2.116 1.47-2.385-.158-3.575-1.479-1.082.383-1.377 11.648-1.847 19.081-.796 27.804-4.732 32.982-14.88 2.363-4.634 2.967-18.043.979-21.758-1.25-2.334-1.362-4.098-.26-4.098.436 0 1.334 2.025 1.996 4.5.662 2.475 1.801 4.5 2.531 4.5 4.613 0 16.819 12.805 18.2 19.093 1.165 5.3 3.303 3.011 7.803-8.354 4.561-11.519 3.262-19.267-4.39-26.18-10.223-9.237-30.27-14.832-41.299-11.528M152 54.818c0 16.449-11.732 25.856-34.525 27.685C106.96 83.347 104 85.152 104 90.72c0 3.876 3.699 8.28 6.955 8.28 1.636 0 2.049.65 2.067 3.25.111 16.41 21.556 30.036 38.102 24.209C166.535 121.032 172 111.08 172 88.442c0-19.618-3.165-27.948-13.173-34.67-5.633-3.783-6.827-3.6-6.827 1.046M41.5 71.328c-12.891 5.055-17.835 12.786-17.296 27.05l.296 7.846 4.329.207c4.814.231 6.133 1.542 6.156 6.119.008 1.678.539 3.574 1.179 4.214 1.637 1.637 1.776 13.952.181 16.05-.705.928-1.296 3.093-1.313 4.814-.04 3.911-1.485 5.136-6.545 5.547l-3.987.325-.294 7.25c-.161 3.988-.026 7.25.301 7.25s5.262-3.462 10.968-7.693c21.775-16.149 31.862-21.051 40.862-19.857 5.944.789 21.602 4.912 24.459 6.441 4.086 2.187 6.063 1.411 6.733-2.641.341-2.062.988-5.55 1.438-7.75 1.143-5.586 1.197-.098.074 7.5-.462 3.123-.403 7.796.135 10.813 1.325 7.421.382 8.966-1.123 1.841-1.429-6.764-2.533-7.489-18.415-12.088-19.794-5.732-24.502-4.186-55.388 18.185L24 160.175v20.496c0 12.327.374 20.363.938 20.162.894-.318 7.234-8.36 25.275-32.061 4.491-5.9 8.369-10.523 8.619-10.274.249.25.018 1.027-.515 1.728-.532.701-8.471 11.029-17.642 22.952L24 204.857v90.571c0 49.815.337 90.563.75 90.551.413-.011 5.025-6.098 10.25-13.526a9496.514 9496.514 0 0 1 13.202-18.729A13478.01 13478.01 0 0 0 63.87 331.5c6.582-9.35 15.632-22.175 20.112-28.5l22.665-32a15334.896 15334.896 0 0 0 25.416-36c10.038-14.28 17.187-23.624 15.301-20-.429.825-3.977 6-7.883 11.5C123.688 248.735 119 255.952 119 258.03c0 6.49 6.442 33.592 10.628 44.713 5.893 15.656 11.475 23.28 20.815 28.432 5.701 3.144 4.559 3.887-1.345.875-12.728-6.493-23.853-30.044-29.498-62.441-2.243-12.876-.936-13.571-16.773 8.921-19.831 28.165-43.329 61.488-47.928 67.97-2.342 3.3-10.252 14.473-17.578 24.829L24 390.158v150.953c0 127.271.22 151.48 1.403 154.311 2.388 5.716 8.261 11.308 14.212 13.535l5.46 2.043h441.281c394.795 0 441.828-.163 446.477-1.543 6.579-1.954 11.834-6.547 14.816-12.95l2.331-5.007.01-242.763.01-242.762-35.75.262-35.75.263-.5 66.165-.5 66.165-3 4.258c-1.65 2.342-4.996 5.312-7.436 6.6l-4.436 2.342-92.564-.265c-105.045-.301-97.171.36-103.564-8.689l-3-4.247-.5-66.164-.5-66.165-33.75-.263-33.75-.264v62.464c0 68.089-.162 70.4-5.341 76.299-6.743 7.679-.208 7.217-102.441 7.242-100.658.024-95.163.361-101.995-6.251-6.201-6.002-6.223-6.271-6.223-76.409V206h-92.759l-3.774 4.605-3.774 4.606 1.877 3.144c11.904 19.942 11.556 21.74-7.967 41.221-35.152 35.076-93.007 75.083-107.51 74.343-.876-.045 1.651-1.112 5.615-2.371 3.964-1.26 11.502-4.669 16.75-7.576l9.542-5.287v-23.342c0-12.839-.237-23.343-.527-23.343-.29 0-3.608 1.614-7.373 3.586-3.87 2.027-7.879 3.44-9.223 3.25-3.001-.424-6.519-7.298-7.338-14.336-.528-4.538-.4-4.334 1.385 2.215 2.883 10.571 3.607 11.623 7.559 10.981 5.884-.954 27.524-15.627 50.779-34.43C242.759 234.778 272 207.94 272 206.793c0-.446-23.738-.694-52.75-.552-52.078.256-52.747.284-52.536 2.259.458 4.27 1.027 16.834.635 14-.983-7.092-4.424-22.891-5.206-23.9-.469-.605-1.343-2.557-1.941-4.337-1.119-3.327-21.196-34.19-23.446-36.042-2.001-1.647-22.013 3.738-25.314 6.811-1.458 1.357-7.378 7.98-13.156 14.718C92.508 186.488 87.589 192 87.355 192c-1.096 0 2.454-4.493 12.644-16l11.069-12.5-.517-5.5c-.353-3.751-.227-4.864.395-3.5.503 1.1.945 3.012.984 4.25.09 2.883 2.227 2.911 12.07.16 12.479-3.489 12-3.121 12-9.222 0-3.661-.402-5.355-1.27-5.355-.698 0-3.168-1.256-5.489-2.792-7.014-4.642-11.031-12.135-13.921-25.965-1.228-5.878-2.85-5.415-4.009 1.146l-1.021 5.778-.145-4.387c-.157-4.742-11.582-28.055-17.295-35.291-1.597-2.023-3.407-5.173-4.022-7-.615-1.827-1.558-3.884-2.096-4.572-1.324-1.694-40.886-1.626-45.232.078M104 98.067c0 1.82 5.015 10.933 6.017 10.933.541 0 .983-1.756.983-3.901 0-3.399-.451-4.168-3.5-5.966-1.925-1.136-3.5-1.616-3.5-1.066m-78.954 10.378c-.66.795-1.052 2.482-.873 3.75.64 4.51 9.827 3.312 9.827-1.282 0-3.446-6.627-5.273-8.954-2.468m-5 9c-.66.795-1.052 2.482-.873 3.75.524 3.692 16.15 3.562 16.672-.139.212-1.502-.343-2.947-1.441-3.75-2.479-1.813-12.822-1.713-14.358.139m-2.45 8.861c-1.098.803-1.653 2.248-1.441 3.75.525 3.72 19.145 3.852 19.672.139.577-4.069-1.431-5.195-9.258-5.195-4.335 0-7.895.518-8.973 1.306m4 9c-1.098.803-1.653 2.248-1.441 3.75.569 4.032 13.195 3.75 13.661-.306.485-4.211-7.928-6.582-12.22-3.444m699.154 2.444c22.138.15 58.363.15 80.5 0 22.138-.15 4.025-.273-40.25-.273s-62.387.123-40.25.273M675 138.82c-5.344 2.422-11.066 8.845-10.956 12.298.025.76.882-.193 1.905-2.118 2.501-4.707 5.835-7.668 10.595-9.411 2.176-.796 3.056-1.448 1.956-1.448s-2.675.305-3.5.679m-260.704 39.924c4.287.188 11.037.187 15-.002 3.962-.19.454-.343-7.796-.342-8.25.001-11.492.156-7.204.344m283 0c4.287.188 11.037.187 15-.002 3.962-.19.454-.343-7.796-.342-8.25.001-11.492.156-7.204.344M406.5 193c-.406.658 8.99 1 27.441 1 18.039 0 28.059-.357 28.059-1 0-.642-9.814-1-27.441-1-17.215 0-27.671.373-28.059 1m283.5 0c0 .642 9.833 1 27.5 1s27.5-.358 27.5-1-9.833-1-27.5-1-27.5.358-27.5 1m-408.131 7.879c-4.053 3.286-15.33 13.32-25.06 22.297-9.729 8.978-24.45 21.499-32.711 27.824-9.277 7.103-15.278 12.397-15.692 13.845-.477 1.668-.899 1.976-1.46 1.068-.605-.979-1.625-.709-4.361 1.155l-3.571 2.432-.007 23.25c-.005 16.19.326 23.25 1.089 23.25 1.831 0 6.904-4.045 6.904-5.506 0-.753.818-1.308 1.819-1.233 3.139.237 29.328-19.932 54.229-41.761 14.713-12.899 24.939-25.453 24.948-30.628.003-2.261-7.65-17.736-10.007-20.234-.448-.475 1.815-4.409 5.029-8.743 9.849-13.283 9.466-15.623-1.149-7.016M168.087 230.5c-.13 7.375 2.591 29.155 3.526 28.22.484-.484-2.358-29.326-3.076-31.22-.209-.55-.411.8-.45 3m97.24-.78c.341.552 3.107 2.511 6.147 4.353 8.132 4.929 7.463 6.331-2.724 5.709-4.538-.276-7.125-.16-5.75.258 3.857 1.174 14.799 1.093 15.546-.114.365-.591-.307-2.107-1.492-3.369-2.28-2.426-12.787-8.553-11.727-6.837M157.762 334.707c1.244.239 3.044.23 4-.02s-.062-.446-2.262-.435c-2.2.011-2.982.216-1.738.455m-49.125 89.758c-2.124.757-5.154 2.614-6.732 4.126-6.222 5.961-5.992 1.782-5.685 103.482l.28 92.574 2.822 4.263c2.052 3.101 4.309 4.921 8.278 6.677l5.457 2.413 90.722-.022c86.358-.021 90.918-.112 94.826-1.886 9.284-4.216 11.725-9.165 12.381-25.092l.514-12.5 4.413-.589c3.097-.413 5.11-1.399 6.75-3.306l2.337-2.717-.213-28.194-.212-28.194-.538 28.147c-.493 25.842-.693 28.319-2.442 30.25L319.69 596H127.349l-2.175-2.314c-2.144-2.283-2.174-2.776-2.142-35.75.034-36.046.008-35.86 5.405-37.912 1.874-.712 31.971-1.039 92.757-1.008l89.983.047-.128-39.282c-.087-27.068-.496-40.517-1.314-43.257-1.516-5.079-7.511-11.09-12.42-12.453-6.276-1.743-183.724-1.372-188.678.394m379.449-.48 92.586.515 4.33 3c8.588 5.95 8.064-1.093 7.763 104.336l-.265 92.979-3.053 3.772c-6.892 8.514.849 7.913-101.947 7.913-50.05 0-92.229-.344-93.732-.764-3.439-.963-9.417-6.157-11.319-9.835-2.62-5.066-2.12-186.665.528-191.857 1.979-3.878 5.745-7.203 10.168-8.974 1.295-.519 1.77-.972 1.055-1.007-2.316-.113-6.83 2.751-9.966 6.323-5.371 6.118-5.383 6.367-5.045 103.114.346 99.094-.112 92.589 6.992 99.216 5.777 5.389 3.779 5.284 100.767 5.284 99.641 0 96.005.234 101.979-6.57 6.19-7.05 6.073-5.113 6.073-100.562 0-97.028.129-94.971-6.384-101.503-6.58-6.6-2.856-6.377-102.616-6.125l-90.5.23 92.586.515m187.551.469c-2.124.763-5.154 2.625-6.732 4.137-6.221 5.96-5.992 1.789-5.685 103.409l.28 92.5 2.873 4.236c1.965 2.896 4.565 5.036 8.221 6.765l5.348 2.53 91.279-.266 91.279-.265 4.638-2.285c2.774-1.367 5.789-3.946 7.5-6.415l2.862-4.129V436.354l-2.683-4.054c-1.475-2.229-4.4-5.122-6.5-6.427L864.5 423.5l-92.5-.217c-76.776-.179-93.157.02-96.363 1.171m-566.033.584c-3.918 1.173-8.463 5.613-10.708 10.462-2.664 5.753-2.941 182.726-.296 189.128 2.064 4.997 3.981 7.092 8.9 9.728l4 2.144h184l4.676-2.749c7.593-4.463 9.972-10.487 9.61-24.334L309.5 598.5l-92-.513c-50.6-.282-92.119-.62-92.265-.75-3.972-3.555-4.228-5.926-4.228-39.237s.256-35.682 4.228-39.237c.146-.13 41.665-.468 92.265-.75l92-.513.262-37.955c.322-46.57-.236-49.086-11.98-53.992-4.202-1.755-182.404-2.242-188.178-.515m566.896.166c-3.966 1.382-8.232 5.419-10.607 10.036-1.863 3.623-1.915 6.643-1.658 96.074l.265 92.333 2.751 4.157c1.513 2.286 4.663 5.178 7 6.426l4.249 2.27h184l4-2.15c2.2-1.183 5.125-3.658 6.5-5.5l2.5-3.35.28-93.5c.154-51.425.042-94.478-.25-95.673-.847-3.476-5.612-8.459-9.989-10.447-3.829-1.74-8.82-1.833-95.041-1.779-60.6.038-92.002.406-94 1.103m-546.204 38.54c4.287.188 11.037.187 15-.002 3.962-.19.454-.343-7.796-.342-8.25.001-11.492.156-7.204.344m284 0c4.287.188 11.037.187 15-.002 3.962-.19.454-.343-7.796-.342-8.25.001-11.492.156-7.204.344m283 0c4.287.188 11.037.187 15-.002 3.962-.19.454-.343-7.796-.342-8.25.001-11.492.156-7.204.344M136.75 478.748c7.837.169 20.662.169 28.5 0 7.837-.169 1.425-.307-14.25-.307s-22.088.138-14.25.307m283 0c7.837.169 20.662.169 28.5 0 7.837-.169 1.425-.307-14.25-.307s-22.088.138-14.25.307m284.061 0c7.87.169 20.47.169 28-.001 7.529-.169 1.089-.308-14.311-.307-15.4 0-21.56.139-13.689.308m-295.888 42.175L405 523.846v43.355c0 45.632.031 45.97 4.442 49.034.582.404 15.92.741 34.085.75 36.846.017 36.53.072 38.429-6.764 1.395-5.025 1.388-80.441-.008-85.469-1.836-6.612-2.643-6.752-38.975-6.752h-32.127l-2.923 2.923m89 0L494 523.846v43.355c0 45.632.031 45.97 4.442 49.034.582.404 16.041.741 34.353.75l33.296.015 2.454-2.455 2.455-2.454v-43.964c0-24.18-.28-44.692-.621-45.582-1.601-4.172-4.749-4.545-38.406-4.545h-32.127l-2.923 2.923m-87.239.111L407 523.145v44.356c0 48.894-.273 46.805 6.282 48.013 1.77.326 16.871.457 33.558.29l30.339-.304 1.911-2.361c2.963-3.662 2.963-87.616-.001-91.278l-1.91-2.361-32.406-.289c-31.682-.282-32.465-.241-35.089 1.823m88.622.379-2.806 2.412-.282 42.303c-.201 30.222.047 43.097.87 45.083 1.88 4.54 5.333 4.944 39.251 4.601l30.84-.312 1.91-2.361c1.815-2.242 1.911-4.519 1.911-45.168 0-23.544-.28-43.536-.621-44.426-1.593-4.151-4.821-4.545-37.274-4.545h-30.993l-2.806 2.413M199.5 552c.799 1.293 23.5 1.293 25.5 0 1.009-.652-3.024-.974-12.309-.985-8.955-.01-13.592.337-13.191.985m11.808 14.748c7.045.172 18.295.171 25-.001 6.706-.173.942-.314-12.808-.313-13.75 0-19.236.142-12.192.314M419.5 576c.356.576 5.657 1 12.5 1s12.144-.424 12.5-1c.4-.647-4.009-1-12.5-1s-12.9.353-12.5 1m89 0c.356.576 5.657 1 12.5 1s12.144-.424 12.5-1c.4-.647-4.009-1-12.5-1s-12.9.353-12.5 1m-77.75 14.747c6.738.173 17.762.173 24.5 0 6.738-.173 1.225-.315-12.25-.315s-18.988.142-12.25.315m89 0c6.737.173 17.763.173 24.5 0 6.737-.173 1.225-.315-12.25-.315s-18.987.142-12.25.315" fill-rule="evenodd"/>
</svg>