<?xml version="1.0" encoding="utf-8"?>
<!-- Generator: Adobe Illustrator 27.5.0, SVG Export Plug-In . SVG Version: 6.00 Build 0)  -->
<svg version="1.1" xmlns="http://www.w3.org/2000/svg" xmlns:xlink="http://www.w3.org/1999/xlink" x="0px" y="0px" width="400px" height="400px"
	 viewBox="0 0 500 500" style="enable-background:new 0 0 500 500;" xml:space="preserve">
<g id="background">
	<rect style="fill:#293D44;" width="500" height="500"/>
</g>
<g id="objects">
	<g>
		<path style="fill:#FFFFFF;" d="M381.476,361.939h-54.611v-4.685c0-0.986-0.56-1.888-1.445-2.323
			c-0.885-0.436-1.942-0.33-2.722,0.271l-20.678,15.905c-0.637,0.489-1.011,1.248-1.011,2.052c0,0.804,0.373,1.563,1.011,2.052
			l20.678,15.905c0.461,0.355,1.018,0.537,1.579,0.537c0.389,0,0.781-0.087,1.143-0.266c0.885-0.436,1.445-1.337,1.445-2.323v-4.686
			h54.611c1.43,0,2.589-1.159,2.589-2.589v-17.261C384.065,363.099,382.905,361.939,381.476,361.939z"/>
		<rect x="230.915" y="303.119" style="fill:none;" width="227.33" height="59.047"/>
		<text transform="matrix(1 0 0 1 294.0068 310.6113)"><tspan x="0" y="0" style="fill:#F7F7FA; font-family:'Quicksand-Regular'; font-size:10.1228px;">OOOPS... SOMETHING </tspan><tspan x="16.718" y="11.087" style="fill:#F7F7FA; font-family:'Quicksand-Regular'; font-size:10.1228px;">GOES WRONG</tspan><tspan x="-38.204" y="35.253" style="fill:#F7F7FA; font-family:'QuicksandBold-Regular'; font-size:23.0683px;">PAGE NOT FOUND</tspan></text>
		<rect x="304.994" y="368.868" style="fill:none;" width="80.766" height="20.979"/>
		
			<text transform="matrix(1 0 0 1 320.0381 378.2803)" style="fill:#171E21; font-family:'QuicksandBold-Regular'; font-size:13.2565px;">GO BACK</text>
	</g>
	<g>
		<polygon style="opacity:0.4;fill:#FFFFFF;" points="246.066,111.338 314.239,285.178 170.581,233.97 163.231,220.786 		"/>
		<g>
			<path style="fill:#FFFFFF;" d="M325.554,59.663c69.172-8.666,120.377,22.457,134.061,81.301
				c6.863,23.546,2.952,50.495-11.099,76.127c-17.17,31.324-46.34,55.944-76.539,64.756c-24.943,9.179-51.812,8.166-75.93-2.881
				c-29.391-13.462-52.918-40.445-64.547-74.032l-0.613-1.927c-8.169-28.283-5.522-56.151,7.656-80.592
				c15.174-28.146,43.705-49.919,80.337-61.307L325.554,59.663z"/>
		</g>
		<g>
			<g>
				<path style="opacity:0.2;" d="M298.869,173.832h1.03c3.192,0,5.767-2.472,5.767-5.665c0-3.09-2.575-5.665-5.767-5.665h-1.03
					v-41.612c0-0.103,0-0.206,0-0.308c0-0.207-0.103-0.31-0.103-0.515c0-0.308,0-0.412-0.103-0.618c0-0.103-0.104-0.308-0.104-0.412
					c-0.103-0.308-0.103-0.411-0.206-0.618c-0.103-0.103-0.206-0.309-0.206-0.411c-0.206-0.31-0.31-0.412-0.412-0.515
					c-0.103-0.103-0.206-0.308-0.308-0.412c-0.103-0.103-0.207-0.206-0.412-0.411c0-0.103-0.206-0.207-0.309-0.207
					c0-0.103-0.104-0.103-0.104-0.103c-0.206-0.103-0.309-0.206-0.514-0.309c-0.103-0.103-0.31-0.206-0.515-0.412
					c-0.103,0-0.31-0.103-0.413-0.103c-0.206-0.103-0.514-0.103-0.618-0.206c-0.206,0-0.309,0-0.514-0.103c-0.104,0-0.412,0-0.618,0
					c-0.103,0-0.103,0-0.207,0c-0.103,0-0.206,0-0.206,0c-0.206,0-0.515,0-0.721,0c-0.103,0.103-0.31,0.103-0.412,0.103
					c-0.309,0.103-0.514,0.103-0.618,0.206c-0.206,0-0.308,0.103-0.411,0.31c-0.31,0-0.412,0.103-0.618,0.206
					c-0.103,0.103-0.31,0.206-0.412,0.309c-0.103,0.103-0.206,0.207-0.515,0.31c-0.103,0.206-0.206,0.308-0.309,0.411
					c-0.103,0.104-0.103,0.207-0.206,0.207l-38.11,47.38c-1.957,2.471-1.649,5.974,0.926,7.931c1.03,0.927,2.266,1.236,3.502,1.236
					h0.103h0.104h32.239v7.827c0,3.193,2.471,5.665,5.664,5.665c3.193,0,5.665-2.472,5.665-5.665V173.832z M287.539,162.501h-20.497
					l20.497-25.44V162.501z"/>
				<path style="opacity:0.2;" d="M345.117,187.324c7.931,0,14.729-4.945,19.055-11.432c4.428-6.592,6.9-15.244,6.9-24.618
					c0-9.476-2.472-18.025-6.9-24.617c-4.327-6.592-11.124-11.433-19.055-11.433c-8.138,0-14.832,4.841-19.158,11.433
					c-4.532,6.592-6.901,15.141-7.004,24.617c0.103,9.374,2.472,18.026,7.004,24.618
					C330.284,182.38,336.979,187.324,345.117,187.324z M335.332,132.941c3.09-4.326,6.592-6.386,9.785-6.283
					c3.193-0.103,6.592,1.957,9.578,6.283c2.885,4.428,4.944,10.917,4.944,18.333c0,7.313-2.06,13.905-4.944,18.231
					c-2.986,4.429-6.385,6.386-9.578,6.386c-3.193,0-6.695-1.957-9.785-6.386c-2.884-4.326-4.945-10.918-4.945-18.231
					C330.387,143.858,332.448,137.369,335.332,132.941z"/>
				<path style="opacity:0.2;" d="M438.307,162.501h-1.03v-41.612c0-0.103,0-0.206,0-0.308c0-0.207-0.103-0.31-0.103-0.515
					c0-0.308,0-0.412-0.103-0.618c0-0.103-0.103-0.308-0.103-0.412c-0.103-0.308-0.103-0.411-0.206-0.618
					c-0.104-0.103-0.207-0.309-0.207-0.411c-0.206-0.31-0.309-0.412-0.411-0.515c-0.103-0.103-0.207-0.308-0.31-0.412
					c-0.103-0.103-0.206-0.206-0.411-0.411c0-0.103-0.207-0.207-0.309-0.207c0-0.103-0.103-0.103-0.103-0.103
					c-0.206-0.103-0.309-0.206-0.515-0.309c-0.103-0.103-0.309-0.206-0.515-0.412c-0.103,0-0.308-0.103-0.411-0.103
					c-0.206-0.103-0.515-0.103-0.618-0.206c-0.206,0-0.31,0-0.515-0.103c-0.103,0-0.412,0-0.618,0c-0.103,0-0.103,0-0.206,0
					c-0.103,0-0.206,0-0.206,0c-0.207,0-0.515,0-0.722,0c-0.103,0.103-0.308,0.103-0.411,0.103c-0.31,0.103-0.515,0.103-0.618,0.206
					c-0.206,0-0.31,0.103-0.412,0.31c-0.308,0-0.411,0.103-0.618,0.206c-0.103,0.103-0.309,0.206-0.411,0.309
					c-0.103,0.103-0.207,0.207-0.515,0.31c-0.103,0.206-0.206,0.308-0.31,0.411c-0.103,0.104-0.103,0.207-0.206,0.207l-38.11,47.38
					c-1.957,2.471-1.647,5.974,0.928,7.931c1.029,0.927,2.266,1.236,3.502,1.236h0.103h0.103h32.239v7.827
					c0,3.193,2.472,5.665,5.665,5.665c3.193,0,5.664-2.472,5.664-5.665v-7.827h1.03c3.193,0,5.768-2.472,5.768-5.665
					C444.075,165.076,441.5,162.501,438.307,162.501z M425.947,162.501H405.45l20.497-25.44V162.501z"/>
				<path style="fill:#A35A5A;" d="M301.354,166.095c0,3.193-2.575,5.666-5.767,5.666h-1.03v7.827c0,3.193-2.472,5.666-5.665,5.666
					c-3.193,0-5.664-2.472-5.664-5.666v-7.827h-32.239h-0.104h-0.103c-1.236,0-2.471-0.31-3.502-1.236
					c-2.575-1.957-2.884-5.46-0.927-7.931l38.11-47.38c0.103,0,0.103-0.103,0.206-0.207c0.103-0.103,0.206-0.206,0.309-0.411
					c0.31-0.103,0.412-0.207,0.515-0.309c0.103-0.103,0.31-0.206,0.412-0.309c0.206-0.103,0.309-0.206,0.618-0.206
					c0.103-0.207,0.206-0.31,0.411-0.31c0.104-0.103,0.31-0.103,0.618-0.206c0.103,0,0.31,0,0.412-0.103c0.206,0,0.515,0,0.721,0
					c0,0,0.103,0,0.206,0c0.104,0,0.104,0,0.207,0c0.206,0,0.514,0,0.618,0c0.206,0.103,0.308,0.103,0.514,0.103
					c0.104,0.103,0.412,0.103,0.618,0.206c0.103,0,0.31,0.103,0.412,0.103c0.206,0.207,0.412,0.31,0.515,0.412
					c0.206,0.103,0.309,0.206,0.514,0.309c0,0,0.104,0,0.104,0.103c0.103,0,0.308,0.104,0.308,0.207
					c0.206,0.206,0.31,0.309,0.412,0.411c0.103,0.104,0.206,0.31,0.308,0.412c0.103,0.103,0.207,0.206,0.413,0.515
					c0,0.103,0.103,0.308,0.206,0.411c0.103,0.207,0.103,0.31,0.206,0.618c0,0.104,0.104,0.31,0.104,0.412
					c0.103,0.206,0.103,0.31,0.103,0.618c0,0.206,0.103,0.308,0.103,0.515c0,0.103,0,0.206,0,0.309v41.612h1.03
					C298.779,160.43,301.354,163.005,301.354,166.095z M283.227,134.99l-20.497,25.44h20.497V134.99z"/>
				<path style="fill:#A35A5A;" d="M314.642,149.203c0.103-9.476,2.472-18.025,7.004-24.617c4.325-6.592,11.02-11.433,19.158-11.433
					c7.931,0,14.729,4.841,19.055,11.433c4.428,6.592,6.9,15.141,6.9,24.617c0,9.374-2.472,18.026-6.9,24.618
					c-4.327,6.488-11.124,11.433-19.055,11.433c-8.138,0-14.832-4.945-19.158-11.433
					C317.114,167.228,314.745,158.577,314.642,149.203z M355.327,149.203c0-7.416-2.06-13.905-4.945-18.333
					c-2.986-4.326-6.385-6.386-9.578-6.283c-3.193-0.103-6.695,1.957-9.785,6.283c-2.884,4.428-4.945,10.917-4.945,18.333
					c0,7.313,2.061,13.905,4.945,18.231c3.09,4.429,6.592,6.386,9.785,6.386c3.193,0,6.592-1.957,9.578-6.386
					C353.267,163.108,355.327,156.516,355.327,149.203z"/>
				<path style="fill:#A35A5A;" d="M439.763,166.095c0,3.193-2.575,5.666-5.768,5.666h-1.03v7.827c0,3.193-2.471,5.666-5.664,5.666
					c-3.193,0-5.665-2.472-5.665-5.666v-7.827h-32.239h-0.103h-0.103c-1.236,0-2.472-0.31-3.502-1.236
					c-2.575-1.957-2.885-5.46-0.928-7.931l38.11-47.38c0.103,0,0.103-0.103,0.206-0.207c0.104-0.103,0.207-0.206,0.31-0.411
					c0.309-0.103,0.412-0.207,0.515-0.309c0.103-0.103,0.309-0.206,0.411-0.309c0.207-0.103,0.31-0.206,0.618-0.206
					c0.103-0.207,0.207-0.31,0.412-0.31c0.103-0.103,0.309-0.103,0.618-0.206c0.103,0,0.309,0,0.411-0.103c0.207,0,0.515,0,0.722,0
					c0,0,0.103,0,0.206,0c0.103,0,0.103,0,0.206,0c0.206,0,0.515,0,0.618,0c0.206,0.103,0.31,0.103,0.515,0.103
					c0.103,0.103,0.412,0.103,0.618,0.206c0.103,0,0.308,0.103,0.411,0.103c0.207,0.207,0.412,0.31,0.515,0.412
					c0.207,0.103,0.31,0.206,0.515,0.309c0,0,0.103,0,0.103,0.103c0.103,0,0.31,0.104,0.31,0.207
					c0.206,0.206,0.308,0.309,0.411,0.411c0.103,0.104,0.207,0.31,0.31,0.412c0.103,0.103,0.206,0.206,0.411,0.515
					c0,0.103,0.103,0.308,0.207,0.411c0.103,0.207,0.103,0.31,0.206,0.618c0,0.104,0.103,0.31,0.103,0.412
					c0.103,0.206,0.103,0.31,0.103,0.618c0,0.206,0.103,0.308,0.103,0.515c0,0.103,0,0.206,0,0.309v41.612h1.03
					C437.188,160.43,439.763,163.005,439.763,166.095z M421.634,134.99l-20.497,25.44h20.497V134.99z"/>
			</g>
			<g>
				<path style="opacity:0.2;" d="M380.948,201.171h-68.423c-8.586,0-15.546,6.96-15.546,15.546v8.451
					c0,8.586,6.96,15.546,15.546,15.546h68.423c8.586,0,15.546-6.96,15.546-15.546v-8.451
					C396.494,208.132,389.534,201.171,380.948,201.171z"/>
				<path style="fill:#A35A5A;" d="M392.182,223.097c0,8.586-6.96,15.546-15.546,15.546h-68.423c-8.586,0-15.546-6.96-15.546-15.546
					v-8.451c0-8.586,6.96-15.546,15.546-15.546h68.423c8.586,0,15.546,6.96,15.546,15.546V223.097z"/>
				<path style="fill:#FFFFFF;" d="M304.568,225.594v-14.679c0-0.771,0.597-1.368,1.369-1.368h0.024c0,0,0,0,0.05,0h8.061
					c0.721,0,1.368,0.597,1.368,1.368c0,0.771-0.647,1.394-1.368,1.394h-6.743v4.553h5.797c0.746,0,1.369,0.647,1.369,1.368
					c0,0.771-0.622,1.394-1.369,1.394h-5.797v4.578h6.743c0.721,0,1.368,0.622,1.368,1.393c0,0.746-0.647,1.369-1.368,1.369h-8.061
					c-0.05,0-0.05-0.025-0.05-0.025l-0.024,0.025C305.165,226.963,304.568,226.341,304.568,225.594z"/>
				<path style="fill:#FFFFFF;" d="M331.334,224.898c0.249,0.721-0.15,1.493-0.871,1.741c-0.1,0.025-0.298,0.075-0.547,0.075
					c0,0,0,0-0.025,0c-0.249,0-0.622-0.049-0.971-0.274c-0.323-0.199-0.596-0.523-0.796-0.87c-0.349-0.722-0.523-1.617-0.523-2.986
					c-0.024-0.472-0.124-0.796-0.298-1.07c-0.149-0.274-0.448-0.523-0.746-0.721c-0.523-0.348-1.169-0.548-1.394-0.597h-2.936v5.398
					c0,0.746-0.621,1.369-1.393,1.369c-0.771,0-1.369-0.622-1.369-1.369v-14.679c0-0.771,0.597-1.368,1.369-1.368c0,0,0,0,0.025,0
					h4.428c2.96,0,5.324,2.388,5.324,5.349c0,1.642-0.746,3.085-1.941,4.08c0.324,0.249,0.622,0.548,0.871,0.921
					c0.498,0.722,0.821,1.643,0.821,2.687c-0.024,0.746,0.05,1.219,0.1,1.468C330.861,224.176,331.184,224.475,331.334,224.898z
					 M327.85,214.897c0-1.443-1.144-2.587-2.562-2.587h-3.061v5.125h3.061C326.706,217.434,327.85,216.29,327.85,214.897z"/>
				<path style="fill:#FFFFFF;" d="M346.88,224.898c0.249,0.721-0.15,1.493-0.871,1.741c-0.1,0.025-0.298,0.075-0.547,0.075
					c0,0,0,0-0.025,0c-0.249,0-0.622-0.049-0.971-0.274c-0.323-0.199-0.596-0.523-0.796-0.87c-0.349-0.722-0.523-1.617-0.523-2.986
					c-0.024-0.472-0.124-0.796-0.298-1.07c-0.149-0.274-0.448-0.523-0.746-0.721c-0.523-0.348-1.169-0.548-1.394-0.597h-2.936v5.398
					c0,0.746-0.621,1.369-1.393,1.369c-0.772,0-1.369-0.622-1.369-1.369v-14.679c0-0.771,0.597-1.368,1.369-1.368c0,0,0,0,0.025,0
					h4.428c2.96,0,5.324,2.388,5.324,5.349c0,1.642-0.746,3.085-1.941,4.08c0.324,0.249,0.622,0.548,0.871,0.921
					c0.498,0.722,0.821,1.643,0.821,2.687c-0.024,0.746,0.05,1.219,0.1,1.468C346.406,224.176,346.73,224.475,346.88,224.898z
					 M343.396,214.897c0-1.443-1.144-2.587-2.562-2.587h-3.061v5.125h3.061C342.252,217.434,343.396,216.29,343.396,214.897z"/>
				<path style="fill:#FFFFFF;" d="M364.216,211.712c1.543,1.642,2.513,3.831,2.513,6.295c0,2.462-0.97,4.677-2.513,6.295
					c-1.467,1.617-3.657,2.662-5.946,2.662c-2.388,0-4.578-1.045-6.095-2.662c-1.543-1.617-2.463-3.832-2.463-6.295
					c0-2.463,0.921-4.653,2.463-6.295c1.518-1.642,3.707-2.662,6.095-2.662C360.559,209.05,362.749,210.07,364.216,211.712z
					 M363.893,218.007c0-1.692-0.672-3.259-1.692-4.354c-1.044-1.12-2.438-1.766-3.931-1.766c-1.592,0-2.985,0.647-4.031,1.766
					c-1.044,1.095-1.692,2.662-1.692,4.354c0,1.692,0.647,3.259,1.692,4.329c1.045,1.12,2.438,1.792,4.031,1.792
					c1.493,0,2.886-0.672,3.931-1.792C363.221,221.266,363.893,219.699,363.893,218.007z"/>
				<path style="fill:#FFFFFF;" d="M383.144,224.898c0.249,0.721-0.15,1.493-0.871,1.741c-0.1,0.025-0.298,0.075-0.547,0.075
					c0,0,0,0-0.025,0c-0.249,0-0.622-0.049-0.971-0.274c-0.323-0.199-0.596-0.523-0.796-0.87c-0.348-0.722-0.523-1.617-0.523-2.986
					c-0.024-0.472-0.124-0.796-0.298-1.07c-0.149-0.274-0.448-0.523-0.746-0.721c-0.523-0.348-1.169-0.548-1.394-0.597h-2.936v5.398
					c0,0.746-0.621,1.369-1.393,1.369c-0.771,0-1.369-0.622-1.369-1.369v-14.679c0-0.771,0.597-1.368,1.369-1.368c0,0,0,0,0.025,0
					h4.428c2.96,0,5.324,2.388,5.324,5.349c0,1.642-0.746,3.085-1.941,4.08c0.324,0.249,0.622,0.548,0.871,0.921
					c0.497,0.722,0.821,1.643,0.821,2.687c-0.024,0.746,0.05,1.219,0.1,1.468C382.671,224.176,382.994,224.475,383.144,224.898z
					 M379.661,214.897c0-1.443-1.144-2.587-2.562-2.587h-3.061v5.125h3.061C378.517,217.434,379.661,216.29,379.661,214.897z"/>
			</g>
		</g>
	</g>
	<g>
		<ellipse style="opacity:0.1;" cx="117.091" cy="406.506" rx="82.091" ry="11.596"/>
		<g>
			<polygon style="fill:#2B2F30;" points="158.863,230.275 135.273,235.471 133.145,225.812 152.572,221.532 156.735,220.615 			"/>
			<polygon style="fill:#3A4042;" points="163.231,229.312 139.641,234.509 137.514,224.849 156.94,220.57 161.104,219.653 			"/>
			<polygon style="fill:#2B2F30;" points="166.536,213.126 171.128,233.969 158.863,230.275 156.735,220.615 			"/>
		</g>
		<g>
			<polygon style="fill:#7F4646;" points="54.347,205.294 89.435,190.948 73.78,165.606 79.187,157.814 105.987,194.282 
				71.592,217.923 			"/>
			
				<rect x="115.132" y="378.923" transform="matrix(0.9462 -0.3236 0.3236 0.9462 -119.6332 59.652)" style="fill:#7F4646;" width="8.806" height="21.19"/>
			<path style="fill:#BABABA;" d="M117.462,397.062c0,0,26.559-9.085,29.231-1.273l-26.559,9.085L117.462,397.062z"/>
			<rect x="55.063" y="381.112" style="fill:#7F4646;" width="8.806" height="21.19"/>
			<polygon style="fill:#3A4042;" points="116.156,394.281 126.063,389.878 85.885,276.509 49.559,276.509 54.513,394.281 
				66.844,394.281 70.169,302.102 73.769,302.102 			"/>
			<path style="fill:#D1ACAC;" d="M79.971,149.876c-12.892-11.992-22.48,5.33-22.48,5.33v6.142
				c-0.469-0.187-0.972-0.294-1.499-0.294c-2.483,0-4.496,2.262-4.496,5.051c0,2.79,2.013,5.052,4.496,5.052
				c0.526,0,1.029-0.107,1.499-0.294v29.783l12.376-3.69v-11.992h11.345v-5.535H74.25c1.289-5.535,7.993-4.612,7.993-4.612v-5.073
				l7.22-0.461L79.971,149.876z"/>
			<path style="fill:#514940;" d="M57.491,163.202v5.722h2.248v-11.24c0,0,7.743,0,8.493-8.493c0,0,19.982,7.493,19.733-14.737
				c0,0-5.495,5.495-9.492,3.497c-3.996-1.998-14.487-7.493-19.483,0c0,0-6.494-1.594-7.493,7.695
				C50.497,154.937,57.491,163.202,57.491,163.202z"/>
			<path style="fill:#171E21;" d="M76.536,158.184c0,1.793,0.419,3.247,0.937,3.247c0.517,0,0.937-1.454,0.937-3.247
				c0-1.793-0.419-3.247-0.937-3.247C76.956,154.937,76.536,156.39,76.536,158.184z"/>
			<path style="fill:#A35A5A;" d="M76.19,189.639v8.471c0,0,4.251,1.261,10.224,9.055c8.501,11.093,19.374,23.508,19.374,23.508
				l29.86-2.842l1.793,11.654l-37.36,5.362l-14.544-13.115l3.951,48.67H46.257l6.857-79.955l-1.168-5.55L76.19,189.639z"/>
			<path style="fill:#BABABA;" d="M55.063,397.843c0,0,29.454,0,29.454,8.663H55.063V397.843z"/>
		</g>
		<polygon style="fill:#D1ACAC;" points="135.563,228.106 141.706,221.961 148.561,220.197 147.496,222.707 144.754,223.311 
			152.136,228.106 145.336,235.976 136.678,235.353 		"/>
		<path style="opacity:0.2;" d="M125.933,394.618l-1.39-4.064l1.521-0.676l-12.618-35.604
			C84.1,330.626,63.869,280.71,63.869,222.952c0-31.528,6.028-60.719,16.276-84.578c-0.573-0.03-1.137-0.155-1.673-0.423
			c-3.996-1.998-14.487-7.493-19.483,0c0,0-6.494-1.594-7.493,7.695c-0.692,6.431,2.446,12.367,4.443,15.413
			c-2.458,0.033-4.443,2.276-4.443,5.046c0,2.79,2.013,5.052,4.496,5.052c0.526,0,1.029-0.107,1.499-0.294v22.83l-5.545,1.203
			l1.168,5.55l-6.857,79.955h3.466l4.79,113.879h0.55v3.563v4.458v4.205h29.454c0-5.524-11.969-7.523-20.648-8.249v-3.977h2.975
			l3.325-92.179h3.6l42.387,92.179l0.307-0.137l0.998,2.918l0.569,1.663l0.767,2.243l1.336,3.906l26.559-9.085
			C145.018,390.892,133.955,392.635,125.933,394.618z"/>
	</g>
</g>
</svg>
